<svg xmlns="http://www.w3.org/2000/svg" width="244.125" height="80" viewBox="0 0 244.125 80">
  <g id="Grupo_2718" data-name="Grupo 2718" transform="translate(16911.514 22331)">
    <g id="Grupo_2716" data-name="Grupo 2716" transform="translate(-17060 -22139)">
      <path id="Uni칩n_1" data-name="Uni칩n 1" d="M178.382,12.867c-1.564,5.429-6.421,8.793-12.257,8.793H147.779L147.487,19h-5.971l-1.064,2.658H124.759l-5.142-11.2h-.23c.007,0-1.319,11.2-1.319,11.2H110.51L113.955.339h7.586l5.185,11.82h.232c-.034-.1,1.246-11.82,1.246-11.82h7.558L132.42,21.015,143.089.339h8.739l4.3,21.251L159.561.339h8.048c6.681,0,11.511,2.631,11.308,9.087C180.653,3.657,186.3,0,192.356,0c6.606,0,11.325,4.355,10.242,11.057C201.493,17.9,195.436,22,188.8,22,182.776,22,178.32,18.617,178.382,12.867Zm8.1-1.7a3.254,3.254,0,0,0,3.4,4.1,4.738,4.738,0,0,0,4.729-4.1c.366-2.262-.886-4.156-3.4-4.156A4.836,4.836,0,0,0,186.485,11.169Zm-21.432,4.1h.49c2.625,0,4.836-1.187,5.289-3.987.483-3-1.07-4.27-3.954-4.27h-.49ZM143.747,13.94h3.173s-.393-5.6-.391-6.5h-.289ZM.146,11.2A13.667,13.667,0,0,1,13.32,0a15.565,15.565,0,0,1,5.166.876L17.4,8.992a5.936,5.936,0,0,0-4.3-2.149A5.152,5.152,0,0,0,8.139,11a3.565,3.565,0,0,0,3.742,4.157,7.5,7.5,0,0,0,4.848-1.979l-1.519,7.973A19.12,19.12,0,0,1,9.448,22C3.246,22-.837,17.278.146,11.2Zm234.49,10.463L234.344,19h-5.97l-1.065,2.658h-14.6l-2.355-6.843h-.144l-1.106,6.843h-7.73L204.822.339h9.547c4.9,0,8.728,2.036,7.86,7.408-.521,3.224-2.01,4.582-5.107,5.543l-.028.17a4.327,4.327,0,0,1,1.121,1.273l2.162,4.148L229.946.339h8.74L243,21.661ZM230.6,13.94h3.173s-.394-5.6-.391-6.5H233.1ZM211.026,9.784h.548c1.3,0,2.628-.2,2.884-1.782.265-1.64-.886-1.838-2.242-1.838h-.606ZM100.789,21.661,104.233.339h7.9l-3.445,21.321Zm-22.126,0H70.412l-2.355-6.843h-.145l-1.105,6.843h-7.73L62.522.339h9.547c4.9,0,8.728,2.036,7.86,7.408-.521,3.224-2.009,4.582-5.107,5.543l-.027.17a4.331,4.331,0,0,1,1.121,1.273l2.952,5.662L82.108.339h8.048c7.3,0,12.387,3.139,11.121,10.972-1.023,6.334-6.23,10.349-12.6,10.349ZM87.6,15.269h.491c2.625,0,4.836-1.187,5.288-3.987.484-3-1.069-4.27-3.954-4.27h-.49ZM68.725,9.784h.548c1.3,0,2.628-.2,2.884-1.782.265-1.64-.886-1.838-2.241-1.838H69.31Z" transform="translate(149 -163)" fill="#1d1d1b" stroke="rgba(0,0,0,0)" stroke-miterlimit="10" stroke-width="1"/>
      <g id="Grupo_3" data-name="Grupo 3" transform="translate(166.876 -162.665)">
        <path id="Trazado_11" data-name="Trazado 11" d="M383.071,215.809a16.032,16.032,0,0,0-8.08,2.039c.229.309.467.541.7.855a8.233,8.233,0,0,1,1.709,5.213c0,.147,0,.373,0,.53a5.153,5.153,0,0,1,3.892-1.778,3.071,3.071,0,0,1,3.117,4.1,5.319,5.319,0,0,1-5.137,4.063,3.223,3.223,0,0,1-3.023-1.715,14.894,14.894,0,0,1-5.518,6.309,12.3,12.3,0,0,0,6.844,2.01c6.766-.015,13.288-3.98,14.995-10.677C394.189,220.152,389.753,215.878,383.071,215.809Z" transform="translate(-351.395 -215.676)" fill="#1063ac" fill-rule="evenodd"/>
        <path id="Trazado_12" data-name="Trazado 12" d="M339.973,215.5a17.359,17.359,0,0,0-2.795.24c-5.668.934-10.805,4.84-12.2,10.506-1.695,6.78,2.817,10.819,9.58,10.888a17.682,17.682,0,0,0,2.64-.241c5.746-.86,10.8-4.6,12.276-10.446C351.176,219.841,346.741,215.562,339.973,215.5Zm1.415,10.967a5.334,5.334,0,0,1-4.192,3.97,5.79,5.79,0,0,1-1.017.078c-2.4-.078-3.73-1.705-3.116-4.127a5.416,5.416,0,0,1,4.125-3.882,4.989,4.989,0,0,1,1.091-.152A3.1,3.1,0,0,1,341.387,226.465Z" transform="translate(-324.625 -215.498)" fill="#1063ac" fill-rule="evenodd"/>
      </g>
    </g>
    <rect id="Rect치ngulo_194" data-name="Rect치ngulo 194" width="243" height="80" transform="translate(-16911 -22331)" fill="none"/>
  </g>
</svg>
