<svg width="350" height="102" viewBox="0 0 350 102" fill="none" xmlns="http://www.w3.org/2000/svg">
<g clip-path="url(#clip0_320_2)">
<path d="M45.7856 48.6843C47.1837 47.9712 48.5057 47.1184 49.7315 46.1388C51.1467 45.0084 52.3941 43.683 53.4362 42.2023C54.6279 40.488 55.566 38.6111 56.2216 36.6295C56.9956 34.2575 57.3709 31.7739 57.3321 29.2794C57.3497 26.378 56.8441 23.4971 55.8393 20.7747C54.8673 18.1572 53.3608 15.7702 51.4154 13.7655C49.3545 11.68 46.872 10.0575 44.1334 9.00629C40.9709 7.80598 37.608 7.21972 34.2254 7.27899H0V71.3438H19.4293V51.1843H26.4519L35.304 71.3438H57.4276L45.7856 48.6843ZM35.6863 33.0749C34.3561 33.8872 32.8214 34.3035 31.2625 34.2749H19.4293V24.1884H31.2625C32.8214 24.1598 34.3561 24.5761 35.6863 25.3884C36.9698 26.1884 37.6115 27.4536 37.6115 29.1839C37.6115 30.9749 36.9698 32.2719 35.6863 33.0749V33.0749Z" fill="#044777"/>
<path d="M81.6358 7.27881H62.2065V71.3573H81.6358V7.27881Z" fill="#044777"/>
<path d="M347.306 25.8885C345.582 21.933 343.061 18.3743 339.901 15.4337C336.668 12.4469 332.875 10.1294 328.741 8.61541C319.785 5.40945 309.993 5.40945 301.038 8.61541C296.906 10.1148 293.113 12.4167 289.878 15.3883C286.716 18.3275 284.195 21.8865 282.473 25.843C280.636 30.1028 279.718 34.7011 279.779 39.3387C279.718 43.9763 280.636 48.5746 282.473 52.8344C284.197 56.7898 286.718 60.3486 289.878 63.2891C293.113 66.2607 296.906 68.5626 301.038 70.062C309.994 73.2619 319.784 73.2619 328.741 70.062C332.872 68.578 336.67 66.2933 339.914 63.3391C343.073 60.3974 345.594 56.8389 347.319 52.8844C349.156 48.6246 350.074 44.0263 350.014 39.3887C350.07 34.7486 349.147 30.1487 347.306 25.8885V25.8885ZM329.173 45.6615C328.477 47.5474 327.414 49.2774 326.047 50.7525C324.678 52.2082 323.025 53.3684 321.19 54.1617C317.154 55.8223 312.624 55.8223 308.588 54.1617C306.753 53.3695 305.1 52.2091 303.732 50.7525C302.365 49.2774 301.302 47.5474 300.605 45.6615C299.131 41.5952 299.131 37.1413 300.605 33.0749C301.301 31.1886 302.364 29.4583 303.732 27.9839C305.101 26.5274 306.753 25.3657 308.588 24.5702C312.624 22.9097 317.154 22.9097 321.19 24.5702C323.025 25.3668 324.677 26.5283 326.047 27.9839C327.415 29.4583 328.478 31.1886 329.173 33.0749C330.648 37.1413 330.648 41.5952 329.173 45.6615V45.6615Z" fill="#044777"/>
<path d="M150.387 25.6294C148.71 21.7785 146.196 18.3485 143.027 15.5883C139.759 12.7992 135.965 10.6926 131.868 9.39271C127.325 7.94555 122.581 7.23201 117.813 7.27904H89.1406V71.3438H117.9C122.633 71.3856 127.342 70.672 131.85 69.2302C135.956 67.9275 139.753 65.8024 143.009 62.9846C146.173 60.2019 148.685 56.7584 150.369 52.8981C152.131 48.9313 153.013 44.3858 153.013 39.2614C153.013 34.1371 152.137 29.5931 150.387 25.6294ZM132.255 45.0797C131.572 46.8672 130.542 48.5017 129.223 49.8889C127.845 51.3091 126.193 52.4362 124.367 53.2026C122.292 54.0638 120.061 54.4878 117.813 54.4481H108.593V24.1884H117.918C120.232 24.1441 122.534 24.5342 124.704 25.3385C126.526 26.0228 128.169 27.1107 129.51 28.5203C130.778 29.8907 131.745 31.5101 132.35 33.275C133.006 35.2083 133.331 37.2384 133.31 39.2796C133.322 41.2617 132.964 43.2286 132.255 45.0797V45.0797Z" fill="#044777"/>
<path d="M205.015 24.1882C207.065 17.9749 210.326 12.2281 214.609 7.27881H156.954V71.3436H214.181L209.862 65.5162C209.758 65.3708 209.653 65.2208 209.562 65.0617C209.107 64.2753 208.652 63.4753 208.224 62.6707L208.033 62.298C206.727 59.7719 205.643 57.1378 204.792 54.4251H176.365V47.4341H203.158C202.256 41.8283 202.333 36.1088 203.386 30.5292H176.365V24.1882H205.015Z" fill="#044777"/>
<path d="M239.732 39.5933C239.732 41.6561 240.343 43.6727 241.49 45.3882C242.637 47.1037 244.267 48.4409 246.175 49.2307C248.083 50.0205 250.183 50.2274 252.209 49.8252C254.234 49.423 256.095 48.4298 257.556 46.9712C259.016 45.5126 260.01 43.6542 260.413 41.6311C260.816 39.6079 260.609 37.5109 259.818 35.6054C259.027 33.6998 257.688 32.0713 255.971 30.9259C254.253 29.7804 252.234 29.1695 250.168 29.1704C248.798 29.1704 247.441 29.44 246.175 29.9638C244.909 30.4876 243.758 31.2554 242.789 32.2232C241.82 33.1911 241.051 34.3401 240.527 35.6047C240.002 36.8692 239.732 38.2246 239.732 39.5933V39.5933Z" fill="#D34442"/>
<path d="M281.399 62.1529L268.587 51.4254C268.444 51.2808 268.273 51.1662 268.084 51.0881C267.896 51.0101 267.694 50.9702 267.49 50.9708H267.367C267.145 50.988 266.929 51.053 266.734 51.1612C266.54 51.2695 266.37 51.4185 266.239 51.5981C264.212 54.3788 261.505 56.5937 258.376 58.0311C255.248 59.4684 251.803 60.0802 248.37 59.8079C244.937 59.5355 241.631 58.3882 238.769 56.4755C235.907 54.5629 233.584 51.9489 232.022 48.8835C230.461 45.8182 229.713 42.4039 229.849 38.9673C229.986 35.5307 231.003 32.1865 232.804 29.2547C234.604 26.3229 237.128 23.9013 240.133 22.2217C243.138 20.542 246.524 19.6604 249.968 19.6612C253.104 19.6507 256.199 20.3777 259.002 21.7833C261.805 23.189 264.237 25.2337 266.102 27.7522C266.235 27.9299 266.405 28.0771 266.599 28.1837C266.794 28.2904 267.009 28.354 267.231 28.3704H267.345C267.548 28.3702 267.749 28.3299 267.936 28.2519C268.124 28.1739 268.294 28.0597 268.437 27.9159L280.835 17.5111C281.177 17.1679 281.381 16.7101 281.406 16.2259C281.432 15.7416 281.277 15.2652 280.971 14.8883C274.805 7.26638 266.028 2.20006 256.337 0.670066C246.646 -0.859926 236.732 1.25522 228.513 6.60609C220.294 11.9569 214.355 20.163 211.845 29.6357C209.336 39.1085 210.434 49.1742 214.928 57.8846L215.074 58.1619C215.416 58.8073 215.773 59.4467 216.143 60.0801C216.78 61.0801 219.083 64.0756 222.192 68.012C222.929 68.7393 248.457 100.572 248.457 100.572C248.626 100.878 248.874 101.133 249.176 101.311C249.477 101.488 249.82 101.582 250.17 101.582C250.52 101.582 250.864 101.488 251.165 101.311C251.467 101.133 251.715 100.878 251.884 100.572L281.727 64.4893C281.933 64.1169 282.012 63.6878 281.953 63.2664C281.894 62.8451 281.7 62.4543 281.399 62.1529Z" fill="#044777"/>
</g>
<defs>
<clipPath id="clip0_320_2">
<rect width="350" height="101.402" fill="white" transform="translate(0 0.187988)"/>
</clipPath>
</defs>
</svg>
