<svg id="Ebene_1" data-name="Ebene 1" xmlns="http://www.w3.org/2000/svg" viewBox="0 0 967.32 157.07"><defs><style>.cls-1{fill:#333;}</style></defs><path class="cls-1" d="M5.5,0H29.66c3.52,0,5.5,2,5.5,5.5v143c0,3.52-2,5.5-5.5,5.5H5.5C2,154,0,152,0,148.5V5.5C0,2,2,0,5.5,0Z"/><path class="cls-1" d="M157.3,84.26V148.5c0,3.52-2,5.5-5.5,5.5h-22c-3.52,0-5.5-2-5.5-5.5V87.12c0-11-6.38-15.84-14.74-15.84-9.9,0-16.07,5.5-16.07,18.48V148.5c0,3.52-2,5.5-5.5,5.5H66c-3.52,0-5.5-2-5.5-5.5v-99c0-3.52,2-5.5,5.5-5.5H88c3.52,0,5.5,2,5.5,5.5V54C98.67,46.4,108,40.92,122.1,40.92,142.56,40.92,157.3,56.76,157.3,84.26Z"/><path class="cls-1" d="M238,49.5V70.18c0,3.52-2,5.5-5.5,5.5h-12.1V148.5c0,3.52-2,5.5-5.5,5.5h-22c-3.52,0-5.5-2-5.5-5.5V75.69h-12.1c-3.52,0-5.5-2-5.5-5.5V49.5c0-3.52,2-5.5,5.5-5.5h12.1V14.3c0-3.52,2-5.5,5.5-5.5h22c3.52,0,5.5,2,5.5,5.5V44h12.1C236.05,44,238,46,238,49.5Z"/><path class="cls-1" d="M360.13,99c0,2.86-.22,5.5-.44,8.14-.44,3.52-2.64,5.06-5.94,5.06H280.29c4,13.07,14.26,18.26,25.72,18.26a26.34,26.34,0,0,0,16.28-5.5c2.2-1.76,4-2.86,6.82-2.86l21.12-.22c4,0,6.16,2.64,4.4,6.16-8.58,19.14-26.62,29-49.06,29-36.52,0-59.84-25.3-59.84-58.08s24.2-58.08,59-58.08C336.81,40.92,360.13,65.78,360.13,99ZM327.28,87.12c-3.4-12.52-13.1-16.94-22.81-16.94-12.37,0-20.92,6-24.32,16.94Z"/><path class="cls-1" d="M434.27,42.23C438,41.57,440,44,440,47.51v26c0,3.52-1.54,5.28-4.4,5.28-12.32-.44-24.2,5.72-24.2,23.32v46.38c0,3.52-2,5.5-5.5,5.5h-22c-3.52,0-5.5-2-5.5-5.5v-99c0-3.52,2-5.5,5.5-5.5h22c3.52,0,5.5,2,5.5,5.5V61.38c3.28-11,11.95-17.51,22.88-19.14Z"/><path class="cls-1" d="M567.59,40.92c21.56,0,34.1,13.64,34.1,38.94V148.5c0,3.52-2,5.5-5.5,5.5h-22c-3.52,0-5.5-2-5.5-5.5V82.69c0-8.8-5.28-11.44-11.44-11.44-6.6,0-12.76,3.3-12.76,14.08v63.14c0,3.52-2,5.5-5.5,5.5H517c-3.52,0-5.5-2-5.5-5.5V82.69c0-8.8-5.28-11.44-11.44-11.44-6.6,0-12.76,3.3-12.76,14.08v63.14c0,3.52-2,5.5-5.5,5.5h-22c-3.52,0-5.5-2-5.5-5.5v-99c0-3.52,2-5.5,5.5-5.5h22c3.52,0,5.5,2,5.5,5.5V54c5-7.62,13.8-13.07,25.3-13.07,11.1,0,20,4.49,25.5,13.09,7.13-7.63,16.3-13.09,29.5-13.09Z"/><path class="cls-1" d="M714.33,84.69v63.8c0,3.52-2,5.5-5.5,5.5H687.66c-3.51,0-5.5-2-5.5-5.5v-3.15c-5.89,6.91-14.55,11.73-28.37,11.73-19.37,0-36.31-11.44-36.31-34.32s16.94-34.32,36.31-34.32c13.82,0,22.48,3.9,28.37,8.38V86.89c0-10.78-4.4-15.62-13.63-15.62-6.83,0-11,2.64-12.77,6.38-1.31,3.08-2.42,4.84-5.72,4.84H628.53c-3.53,0-5.73-2-5.51-5.72,2.86-23.76,23.1-35.86,45.55-35.86C692.77,40.92,714.33,55,714.33,84.69ZM682.2,122.75c0-6.82-5.93-11-16.71-11-10.12,0-15,4.62-15,11s4.84,11,15,11c10.78,0,16.71-4.61,16.71-11Z"/><path class="cls-1" d="M795.06,49.5V70.18c0,3.52-2,5.5-5.5,5.5h-12.1V148.5c0,3.52-2,5.5-5.5,5.5H750c-3.52,0-5.5-2-5.5-5.5V75.69h-12.1c-3.52,0-5.5-2-5.5-5.5V49.5c0-3.52,2-5.5,5.5-5.5h12.1V14.3c0-3.52,2-5.5,5.5-5.5h22c3.52,0,5.5,2,5.5,5.5V44h12.1C793.08,44,795.06,46,795.06,49.5Z"/><path class="cls-1" d="M917.16,99c0,2.86-.22,5.5-.44,8.14-.44,3.52-2.64,5.06-5.94,5.06H837.32c4,13.07,14.26,18.26,25.72,18.26a26.34,26.34,0,0,0,16.28-5.5c2.2-1.76,4-2.86,6.82-2.86l21.12-.22c4,0,6.16,2.64,4.4,6.16-8.58,19.14-26.62,29-49.06,29-36.52,0-59.84-25.3-59.84-58.08s24.2-58.08,59-58.08C893.84,40.92,917.16,65.78,917.16,99ZM884.31,87.12c-3.4-12.52-13.1-16.94-22.81-16.94-12.36,0-20.92,6-24.32,16.94Z"/><path class="cls-1" d="M932.12,148.5V124.3c0-3.52,2-5.5,5.5-5.5h24.2c3.52,0,5.5,2,5.5,5.5v24.2c0,3.52-2,5.5-5.5,5.5H937.66C934.1,154,932.12,152,932.12,148.5Z"/></svg>