<svg version="1.1" id="Layer_1" xmlns="http://www.w3.org/2000/svg" xmlns:xlink="http://www.w3.org/1999/xlink" x="0px" y="0px"
	 width="100%" viewBox="0 0 500 500" enable-background="new 0 0 500 500" xml:space="preserve">
<path fill="#000000" opacity="1.000000" stroke="none" 
	d="
M332.000000,501.000000 
	C221.333359,501.000000 111.166718,501.000000 1.000059,501.000000 
	C1.000039,334.333405 1.000039,167.666794 1.000020,1.000149 
	C167.666565,1.000099 334.333130,1.000099 500.999756,1.000050 
	C500.999847,167.666519 500.999847,334.333038 500.999939,500.999786 
	C444.833344,501.000000 388.666656,501.000000 332.000000,501.000000 
M292.414490,384.933167 
	C295.609100,392.946838 298.546478,401.078400 302.136963,408.910583 
	C303.404449,411.675476 305.828186,414.559021 308.478455,415.929474 
	C320.266113,422.025085 330.337341,418.296661 339.223114,409.487793 
	C346.624786,402.150238 346.744843,392.544464 346.794525,383.539886 
	C346.978058,350.293365 346.544678,317.037781 345.828766,283.796661 
	C345.678162,276.803864 343.724701,269.758148 341.920258,262.916595 
	C339.800873,254.881058 337.459930,247.014999 337.841522,238.515915 
	C337.969727,235.661484 336.768188,232.391144 335.189636,229.946899 
	C334.207367,228.425980 330.912292,226.919540 329.478363,227.486908 
	C326.752014,228.565628 324.994110,231.190872 326.298126,234.764221 
	C327.103638,236.971481 327.604584,239.323044 327.960297,241.652863 
	C328.401855,244.544678 327.992615,247.672974 328.917267,250.367508 
	C335.909973,270.745148 336.460449,291.993011 336.817230,313.099121 
	C337.252289,338.836243 336.536285,364.601929 335.809967,390.340912 
	C335.681549,394.891968 333.930908,399.945496 331.404633,403.756165 
	C327.283020,409.973328 315.142578,411.784363 310.527496,405.106049 
	C303.918365,395.542145 300.543030,385.009949 299.996948,373.478729 
	C299.778778,368.871826 299.711121,364.248138 299.253723,359.664154 
	C298.107666,348.178986 294.284424,337.109894 294.805725,325.294617 
	C295.111542,318.362732 293.617432,311.327393 292.691345,304.370728 
	C291.234680,293.428284 288.925415,282.557159 288.177521,271.574066 
	C287.386566,259.957703 288.129730,248.243851 287.965027,236.575943 
	C287.785004,223.822495 287.388458,211.071045 286.966522,198.322678 
	C286.831116,194.231277 286.420441,190.140350 285.952759,186.070236 
	C284.687714,175.061081 282.797699,164.095016 282.131012,153.052979 
	C281.262421,138.667816 281.472961,124.220497 280.912048,109.811882 
	C280.750885,105.671074 280.339233,101.190369 278.617737,97.536758 
	C275.553925,91.034119 272.308441,84.582466 263.361023,83.586288 
	C254.905472,82.644882 246.893234,83.216385 238.800339,85.581711 
	C231.281082,87.779381 226.435379,92.445320 224.589294,99.968796 
	C223.704117,103.576180 222.978928,107.369278 223.094421,111.049614 
	C223.523651,124.727501 224.394272,138.390823 224.977798,152.064804 
	C225.415085,162.311874 225.423630,172.582077 226.064148,182.814362 
	C226.790207,194.413071 227.102997,206.148712 229.210815,217.525528 
	C232.975143,237.843185 232.744110,258.364777 233.894226,278.815002 
	C234.243668,285.028534 233.425568,291.319519 232.976898,297.563171 
	C232.402206,305.560822 231.967697,313.587982 230.894806,321.524323 
	C230.012787,328.048798 226.341537,333.241119 221.165604,337.330536 
	C218.665176,339.306091 216.196365,339.438324 213.791641,337.259308 
	C206.617020,330.758118 201.293472,322.755066 200.223511,313.261963 
	C198.694229,299.693695 198.571106,285.959534 198.068542,272.288116 
	C197.943497,268.886139 198.896698,265.457367 198.962433,262.033386 
	C199.370392,240.784317 199.666794,219.533066 199.999603,198.282547 
	C200.010025,197.616104 199.886353,196.918701 200.039383,196.287689 
	C202.307465,186.935745 201.235596,177.777817 197.923874,168.933960 
	C193.384232,156.810974 176.293518,149.328018 163.665909,157.848984 
	C156.843613,162.452606 155.280457,170.066925 155.179382,177.351807 
	C154.947067,194.094757 155.527954,210.855499 156.076736,227.599258 
	C156.268234,233.442230 157.046387,239.314041 158.190964,245.046021 
	C158.501480,246.601044 160.994400,248.554840 162.714996,248.816315 
	C166.078506,249.327423 167.227814,246.810379 166.994980,243.715607 
	C166.010422,230.628525 164.560303,217.556747 164.151962,204.452225 
	C163.822983,193.895004 164.340561,183.263214 165.267853,172.733673 
	C165.797958,166.714096 170.040298,163.339340 174.328903,164.045761 
	C176.841080,164.459579 179.251358,165.484039 181.762161,165.915787 
	C185.995682,166.643784 187.866257,169.148865 189.159805,173.174286 
	C191.647614,180.916290 190.802658,188.510818 190.168274,196.374954 
	C189.197540,208.408295 189.012695,220.532364 189.066742,232.615356 
	C189.179703,257.864685 189.428268,283.118622 190.095947,308.358093 
	C190.454224,321.900879 194.587357,334.184753 206.170090,342.562653 
	C209.997726,345.331238 213.904800,349.514984 219.195038,347.804260 
	C227.926865,344.980621 234.243591,339.487488 238.178238,330.628448 
	C242.892227,320.014679 242.118698,308.837769 242.716690,297.957092 
	C243.523926,283.268707 242.945770,268.424713 241.844559,253.731247 
	C240.504898,235.855865 236.865250,218.102539 236.315887,200.232010 
	C235.737793,181.427078 234.490616,162.720200 233.130600,143.979858 
	C232.396729,133.867416 232.827347,123.653557 233.086060,113.494446 
	C233.187744,109.501945 233.689758,105.334846 235.007828,101.599541 
	C237.224075,95.318802 249.959442,90.508186 257.564484,92.160355 
	C263.953033,93.548233 267.935516,96.945244 269.075684,103.507286 
	C269.985107,108.741356 271.545715,113.919220 271.889740,119.182663 
	C272.590973,129.909653 272.516479,140.684921 273.046265,151.426270 
	C273.490753,160.438400 274.305389,169.433304 275.016418,178.431061 
	C276.320831,194.938248 277.769073,211.434998 278.917664,227.952774 
	C279.152649,231.332001 277.927948,234.802109 278.075134,238.200043 
	C278.537628,248.878159 279.182312,259.554077 280.043945,270.207581 
	C280.847137,280.138245 281.779327,290.070618 283.081512,299.945984 
	C285.204559,316.046326 288.064667,332.057281 289.869537,348.189209 
	C291.202911,360.106720 291.351807,372.156769 292.414490,384.933167 
z"/>
<path fill="#FFFFFF" opacity="1.000000" stroke="none" 
	d="
M292.221436,384.540466 
	C291.351807,372.156769 291.202911,360.106720 289.869537,348.189209 
	C288.064667,332.057281 285.204559,316.046326 283.081512,299.945984 
	C281.779327,290.070618 280.847137,280.138245 280.043945,270.207581 
	C279.182312,259.554077 278.537628,248.878159 278.075134,238.200043 
	C277.927948,234.802109 279.152649,231.332001 278.917664,227.952774 
	C277.769073,211.434998 276.320831,194.938248 275.016418,178.431061 
	C274.305389,169.433304 273.490753,160.438400 273.046265,151.426270 
	C272.516479,140.684921 272.590973,129.909653 271.889740,119.182663 
	C271.545715,113.919220 269.985107,108.741356 269.075684,103.507286 
	C267.935516,96.945244 263.953033,93.548233 257.564484,92.160355 
	C249.959442,90.508186 237.224075,95.318802 235.007828,101.599541 
	C233.689758,105.334846 233.187744,109.501945 233.086060,113.494446 
	C232.827347,123.653557 232.396729,133.867416 233.130600,143.979858 
	C234.490616,162.720200 235.737793,181.427078 236.315887,200.232010 
	C236.865250,218.102539 240.504898,235.855865 241.844559,253.731247 
	C242.945770,268.424713 243.523926,283.268707 242.716690,297.957092 
	C242.118698,308.837769 242.892227,320.014679 238.178238,330.628448 
	C234.243591,339.487488 227.926865,344.980621 219.195038,347.804260 
	C213.904800,349.514984 209.997726,345.331238 206.170090,342.562653 
	C194.587357,334.184753 190.454224,321.900879 190.095947,308.358093 
	C189.428268,283.118622 189.179703,257.864685 189.066742,232.615356 
	C189.012695,220.532364 189.197540,208.408295 190.168274,196.374954 
	C190.802658,188.510818 191.647614,180.916290 189.159805,173.174286 
	C187.866257,169.148865 185.995682,166.643784 181.762161,165.915787 
	C179.251358,165.484039 176.841080,164.459579 174.328903,164.045761 
	C170.040298,163.339340 165.797958,166.714096 165.267853,172.733673 
	C164.340561,183.263214 163.822983,193.895004 164.151962,204.452225 
	C164.560303,217.556747 166.010422,230.628525 166.994980,243.715607 
	C167.227814,246.810379 166.078506,249.327423 162.714996,248.816315 
	C160.994400,248.554840 158.501480,246.601044 158.190964,245.046021 
	C157.046387,239.314041 156.268234,233.442230 156.076736,227.599258 
	C155.527954,210.855499 154.947067,194.094757 155.179382,177.351807 
	C155.280457,170.066925 156.843613,162.452606 163.665909,157.848984 
	C176.293518,149.328018 193.384232,156.810974 197.923874,168.933960 
	C201.235596,177.777817 202.307465,186.935745 200.039383,196.287689 
	C199.886353,196.918701 200.010025,197.616104 199.999603,198.282547 
	C199.666794,219.533066 199.370392,240.784317 198.962433,262.033386 
	C198.896698,265.457367 197.943497,268.886139 198.068542,272.288116 
	C198.571106,285.959534 198.694229,299.693695 200.223511,313.261963 
	C201.293472,322.755066 206.617020,330.758118 213.791641,337.259308 
	C216.196365,339.438324 218.665176,339.306091 221.165604,337.330536 
	C226.341537,333.241119 230.012787,328.048798 230.894806,321.524323 
	C231.967697,313.587982 232.402206,305.560822 232.976898,297.563171 
	C233.425568,291.319519 234.243668,285.028534 233.894226,278.815002 
	C232.744110,258.364777 232.975143,237.843185 229.210815,217.525528 
	C227.102997,206.148712 226.790207,194.413071 226.064148,182.814362 
	C225.423630,172.582077 225.415085,162.311874 224.977798,152.064804 
	C224.394272,138.390823 223.523651,124.727501 223.094421,111.049614 
	C222.978928,107.369278 223.704117,103.576180 224.589294,99.968796 
	C226.435379,92.445320 231.281082,87.779381 238.800339,85.581711 
	C246.893234,83.216385 254.905472,82.644882 263.361023,83.586288 
	C272.308441,84.582466 275.553925,91.034119 278.617737,97.536758 
	C280.339233,101.190369 280.750885,105.671074 280.912048,109.811882 
	C281.472961,124.220497 281.262421,138.667816 282.131012,153.052979 
	C282.797699,164.095016 284.687714,175.061081 285.952759,186.070236 
	C286.420441,190.140350 286.831116,194.231277 286.966522,198.322678 
	C287.388458,211.071045 287.785004,223.822495 287.965027,236.575943 
	C288.129730,248.243851 287.386566,259.957703 288.177521,271.574066 
	C288.925415,282.557159 291.234680,293.428284 292.691345,304.370728 
	C293.617432,311.327393 295.111542,318.362732 294.805725,325.294617 
	C294.284424,337.109894 298.107666,348.178986 299.253723,359.664154 
	C299.711121,364.248138 299.778778,368.871826 299.996948,373.478729 
	C300.543030,385.009949 303.918365,395.542145 310.527496,405.106049 
	C315.142578,411.784363 327.283020,409.973328 331.404633,403.756165 
	C333.930908,399.945496 335.681549,394.891968 335.809967,390.340912 
	C336.536285,364.601929 337.252289,338.836243 336.817230,313.099121 
	C336.460449,291.993011 335.909973,270.745148 328.917267,250.367508 
	C327.992615,247.672974 328.401855,244.544678 327.960297,241.652863 
	C327.604584,239.323044 327.103638,236.971481 326.298126,234.764221 
	C324.994110,231.190872 326.752014,228.565628 329.478363,227.486908 
	C330.912292,226.919540 334.207367,228.425980 335.189636,229.946899 
	C336.768188,232.391144 337.969727,235.661484 337.841522,238.515915 
	C337.459930,247.014999 339.800873,254.881058 341.920258,262.916595 
	C343.724701,269.758148 345.678162,276.803864 345.828766,283.796661 
	C346.544678,317.037781 346.978058,350.293365 346.794525,383.539886 
	C346.744843,392.544464 346.624786,402.150238 339.223114,409.487793 
	C330.337341,418.296661 320.266113,422.025085 308.478455,415.929474 
	C305.828186,414.559021 303.404449,411.675476 302.136963,408.910583 
	C298.546478,401.078400 295.609100,392.946838 292.221436,384.540466 
z"/>
</svg>