<svg version="1.1" id="Layer_1" xmlns="http://www.w3.org/2000/svg" xmlns:xlink="http://www.w3.org/1999/xlink" x="0px" y="0px"
	 width="100%" viewBox="0 0 500 500" enable-background="new 0 0 500 500" xml:space="preserve">
<path fill="#000000" opacity="1.000000" stroke="none" 
	d="
M333.000000,501.000000 
	C222.000031,501.000000 111.500053,501.000000 1.000059,501.000000 
	C1.000040,334.333405 1.000040,167.666794 1.000020,1.000149 
	C167.666565,1.000099 334.333130,1.000099 500.999756,1.000050 
	C500.999847,167.666519 500.999847,334.333038 500.999939,500.999786 
	C445.166656,501.000000 389.333344,501.000000 333.000000,501.000000 
M176.426422,164.720688 
	C185.985062,165.702988 188.422134,167.290924 189.851929,176.598694 
	C190.807083,182.816803 190.119751,189.304947 189.987808,195.668533 
	C189.726654,208.264694 189.020905,220.859634 189.074097,233.452637 
	C189.182144,259.033142 189.143204,284.633972 190.202972,310.183380 
	C190.843582,325.627747 196.994904,338.813568 212.395615,346.729889 
	C214.780975,347.054596 217.438156,348.222748 219.504272,347.556885 
	C228.085114,344.791504 234.257584,339.404816 238.110306,330.825562 
	C242.960205,320.025757 242.300583,308.560059 242.726974,297.436371 
	C243.425003,279.226715 242.383621,260.947540 241.961853,242.700333 
	C241.878571,239.097351 241.412445,235.487061 240.894135,231.913330 
	C239.322983,221.080215 236.453445,210.283676 236.268005,199.435654 
	C235.962585,181.571045 234.648392,163.843430 233.166519,146.066254 
	C232.229340,134.823441 232.583145,123.418571 233.149094,112.126038 
	C233.470062,105.721451 233.267410,98.583481 241.222351,95.253601 
	C248.770920,92.093826 256.186462,91.149734 264.244202,94.712822 
	C271.184052,101.343491 270.982330,110.452034 271.821045,118.831734 
	C272.938965,130.001465 272.522095,141.316574 273.065796,152.554657 
	C273.486359,161.248016 274.338654,169.921555 275.054199,178.599350 
	C276.348999,194.301346 277.880554,209.987305 278.895721,225.706924 
	C279.242920,231.083878 278.067383,236.542221 278.078400,241.962387 
	C278.090424,247.885574 278.533020,253.819305 279.033844,259.727600 
	C279.947754,270.508881 280.840302,281.298920 282.117004,292.040710 
	C283.521484,303.858032 285.317535,315.629608 287.004608,327.412262 
	C287.895355,333.633209 288.917145,339.835327 289.988342,346.943695 
	C290.326691,353.843872 291.183350,360.765594 290.897156,367.639771 
	C290.271057,382.677643 294.975677,396.142639 302.016724,409.011444 
	C306.491882,417.190643 316.088928,421.004730 324.872925,417.982605 
	C330.809113,416.878754 335.186859,413.371460 339.411469,409.249603 
	C346.655182,402.182190 346.732300,392.810364 346.786804,384.140015 
	C346.997894,350.572418 346.549744,316.994751 345.830170,283.431946 
	C345.679779,276.416321 343.810730,269.311188 341.869232,262.493469 
	C339.621979,254.602142 337.547058,246.844666 337.851379,238.511276 
	C337.951538,235.767990 336.986511,232.563080 335.426483,230.322693 
	C334.286682,228.685791 330.917480,227.032013 329.355316,227.604584 
	C326.608093,228.611542 325.001923,231.413330 326.452423,234.928864 
	C327.226624,236.805298 327.715302,238.857391 327.971863,240.876083 
	C328.364532,243.965363 327.683960,247.397629 328.783356,250.156555 
	C335.308624,266.531647 336.000305,284.011261 336.604462,301.013184 
	C337.689087,331.538361 336.367432,362.150421 335.982819,392.725342 
	C335.898590,399.421448 330.355316,408.071564 321.159393,408.984589 
	C317.112488,409.257477 313.432007,409.041809 310.661072,405.204865 
	C303.898499,395.840515 300.741058,385.330566 300.018616,373.963470 
	C299.716034,369.202454 299.763489,364.410858 299.277740,359.671478 
	C298.099854,348.178741 294.093842,337.094910 294.845428,325.269287 
	C295.145508,320.548035 293.744934,315.718719 293.029419,310.064667 
	C292.810913,307.950470 292.644501,305.829376 292.365204,303.723236 
	C290.928131,292.886719 288.855988,282.092224 288.171051,271.209686 
	C287.438934,259.576752 288.136017,247.860245 287.970154,236.183609 
	C287.791412,223.600647 287.393494,211.019653 286.967346,198.442017 
	C286.828461,194.343979 286.398285,190.247955 285.931915,186.170395 
	C284.668854,175.126923 282.787384,164.125259 282.127533,153.048874 
	C281.260986,138.502243 281.325195,123.900040 280.995056,109.321602 
	C280.793396,100.417107 277.764069,92.651619 271.030762,86.755417 
	C269.276825,85.219521 266.380646,84.987999 263.264343,83.727097 
	C252.978653,81.844170 243.080261,83.049545 233.731857,87.764153 
	C227.827789,90.741707 224.603241,96.058090 224.175446,102.334442 
	C223.585693,110.986786 223.809174,119.714859 224.057663,128.399811 
	C224.582748,146.751877 225.136795,165.108170 226.095779,183.440918 
	C226.696121,194.917664 227.151382,206.525513 229.276443,217.771317 
	C232.877045,236.825623 233.017181,256.077484 233.771759,275.257782 
	C234.301636,288.726715 233.063934,302.316864 231.841415,315.782593 
	C231.167007,323.211121 229.337036,330.528442 222.885544,335.855164 
	C219.477051,338.669403 216.697311,339.923035 212.780136,336.283630 
	C206.096603,329.827179 201.146133,322.078949 200.203156,312.911926 
	C198.818176,299.447784 198.456512,285.861755 198.094147,272.315979 
	C197.908951,265.392761 198.810547,258.447601 198.976959,251.506485 
	C199.394836,234.077194 199.672180,216.644531 200.013565,199.213379 
	C200.029785,198.385452 200.178543,197.558136 200.166702,196.731964 
	C200.061111,189.366516 201.026962,181.777420 199.574463,174.684830 
	C196.906326,161.656311 190.019943,156.522812 176.205780,154.035706 
	C172.291718,155.038010 167.927399,155.258942 164.555405,157.201965 
	C157.070465,161.514969 155.312012,169.552444 155.192856,177.201935 
	C154.932236,193.933990 155.539215,210.686356 156.090073,227.420593 
	C156.283813,233.305878 157.056946,239.220688 158.208008,244.993912 
	C158.520996,246.563797 161.225815,248.751312 162.736099,248.677383 
	C164.219757,248.604767 166.325287,246.227463 166.816010,244.483856 
	C167.508759,242.022385 167.133026,239.200470 166.924652,236.555435 
	C166.007370,224.911499 164.567947,213.291183 164.136978,201.632034 
	C163.801895,192.566757 164.547150,183.449463 165.056198,174.368973 
	C165.443985,167.451736 169.382965,163.928696 176.426422,164.720688 
z"/>
<path fill="#6263C8" opacity="1.000000" stroke="none" 
	d="
M263.926300,94.100189 
	C256.186462,91.149734 248.770920,92.093826 241.222351,95.253601 
	C233.267410,98.583481 233.470062,105.721451 233.149094,112.126038 
	C232.583145,123.418571 232.229340,134.823441 233.166519,146.066254 
	C234.648392,163.843430 235.962585,181.571045 236.268005,199.435654 
	C236.453445,210.283676 239.322983,221.080215 240.894135,231.913330 
	C241.412445,235.487061 241.878571,239.097351 241.961853,242.700333 
	C242.383621,260.947540 243.425003,279.226715 242.726974,297.436371 
	C242.300583,308.560059 242.960205,320.025757 238.110306,330.825562 
	C234.257584,339.404816 228.085114,344.791504 219.504272,347.556885 
	C217.438156,348.222748 214.780975,347.054596 212.213501,346.003113 
	C212.368439,342.484528 212.705490,339.692688 213.042526,336.900879 
	C216.697311,339.923035 219.477051,338.669403 222.885544,335.855164 
	C229.337036,330.528442 231.167007,323.211121 231.841415,315.782593 
	C233.063934,302.316864 234.301636,288.726715 233.771759,275.257782 
	C233.017181,256.077484 232.877045,236.825623 229.276443,217.771317 
	C227.151382,206.525513 226.696121,194.917664 226.095779,183.440918 
	C225.136795,165.108170 224.582748,146.751877 224.057663,128.399811 
	C223.809174,119.714859 223.585693,110.986786 224.175446,102.334442 
	C224.603241,96.058090 227.827789,90.741707 233.731857,87.764153 
	C243.080261,83.049545 252.978653,81.844170 263.628204,84.389069 
	C263.970154,88.067421 263.948212,91.083809 263.926300,94.100189 
z"/>
<path fill="#9771D7" opacity="1.000000" stroke="none" 
	d="
M264.085266,94.406509 
	C263.948212,91.083809 263.970154,88.067421 264.000580,84.604210 
	C266.380646,84.987999 269.276825,85.219521 271.030762,86.755417 
	C277.764069,92.651619 280.793396,100.417107 280.995056,109.321602 
	C281.325195,123.900040 281.260986,138.502243 282.127533,153.048874 
	C282.787384,164.125259 284.668854,175.126923 285.931915,186.170395 
	C286.398285,190.247955 286.828461,194.343979 286.967346,198.442017 
	C287.393494,211.019653 287.791412,223.600647 287.970154,236.183609 
	C288.136017,247.860245 287.438934,259.576752 288.171051,271.209686 
	C288.855988,282.092224 290.928131,292.886719 292.365204,303.723236 
	C292.644501,305.829376 292.810913,307.950470 292.804230,310.825409 
	C292.384338,316.379578 292.349854,321.186218 291.956390,325.963287 
	C291.404053,332.669037 290.584869,339.352783 289.879822,346.045959 
	C288.917145,339.835327 287.895355,333.633209 287.004608,327.412262 
	C285.317535,315.629608 283.521484,303.858032 282.117004,292.040710 
	C280.840302,281.298920 279.947754,270.508881 279.033844,259.727600 
	C278.533020,253.819305 278.090424,247.885574 278.078400,241.962387 
	C278.067383,236.542221 279.242920,231.083878 278.895721,225.706924 
	C277.880554,209.987305 276.348999,194.301346 275.054199,178.599350 
	C274.338654,169.921555 273.486359,161.248016 273.065796,152.554657 
	C272.522095,141.316574 272.938965,130.001465 271.821045,118.831734 
	C270.982330,110.452034 271.184052,101.343491 264.085266,94.406509 
z"/>
<path fill="#DD83EA" opacity="1.000000" stroke="none" 
	d="
M322.014832,409.158051 
	C330.355316,408.071564 335.898590,399.421448 335.982819,392.725342 
	C336.367432,362.150421 337.689087,331.538361 336.604462,301.013184 
	C336.000305,284.011261 335.308624,266.531647 328.783356,250.156555 
	C327.683960,247.397629 328.364532,243.965363 327.971863,240.876083 
	C327.715302,238.857391 327.226624,236.805298 326.452423,234.928864 
	C325.001923,231.413330 326.608093,228.611542 329.355316,227.604584 
	C330.917480,227.032013 334.286682,228.685791 335.426483,230.322693 
	C336.986511,232.563080 337.951538,235.767990 337.851379,238.511276 
	C337.547058,246.844666 339.621979,254.602142 341.869232,262.493469 
	C343.810730,269.311188 345.679779,276.416321 345.830170,283.431946 
	C346.549744,316.994751 346.997894,350.572418 346.786804,384.140015 
	C346.732300,392.810364 346.655182,402.182190 339.411469,409.249603 
	C335.186859,413.371460 330.809113,416.878754 324.117371,417.895691 
	C322.912842,414.925232 322.463837,412.041626 322.014832,409.158051 
z"/>
<path fill="#2F56BA" opacity="1.000000" stroke="none" 
	d="
M212.911331,336.592255 
	C212.705490,339.692688 212.368439,342.484528 211.998352,345.692261 
	C196.994904,338.813568 190.843582,325.627747 190.202972,310.183380 
	C189.143204,284.633972 189.182144,259.033142 189.074097,233.452637 
	C189.020905,220.859634 189.726654,208.264694 189.987808,195.668533 
	C190.119751,189.304947 190.807083,182.816803 189.851929,176.598694 
	C188.422134,167.290924 185.985062,165.702988 176.268951,164.010132 
	C176.415497,160.255859 176.719498,157.212128 177.023514,154.168411 
	C190.019943,156.522812 196.906326,161.656311 199.574463,174.684830 
	C201.026962,181.777420 200.061111,189.366516 200.166702,196.731964 
	C200.178543,197.558136 200.029785,198.385452 200.013565,199.213379 
	C199.672180,216.644531 199.394836,234.077194 198.976959,251.506485 
	C198.810547,258.447601 197.908951,265.392761 198.094147,272.315979 
	C198.456512,285.861755 198.818176,299.447784 200.203156,312.911926 
	C201.146133,322.078949 206.096603,329.827179 212.911331,336.592255 
z"/>
<path fill="#074CAF" opacity="1.000000" stroke="none" 
	d="
M176.614655,154.102051 
	C176.719498,157.212128 176.415497,160.255859 176.034042,163.704590 
	C169.382965,163.928696 165.443985,167.451736 165.056198,174.368973 
	C164.547150,183.449463 163.801895,192.566757 164.136978,201.632034 
	C164.567947,213.291183 166.007370,224.911499 166.924652,236.555435 
	C167.133026,239.200470 167.508759,242.022385 166.816010,244.483856 
	C166.325287,246.227463 164.219757,248.604767 162.736099,248.677383 
	C161.225815,248.751312 158.520996,246.563797 158.208008,244.993912 
	C157.056946,239.220688 156.283813,233.305878 156.090073,227.420593 
	C155.539215,210.686356 154.932236,193.933990 155.192856,177.201935 
	C155.312012,169.552444 157.070465,161.514969 164.555405,157.201965 
	C167.927399,155.258942 172.291718,155.038010 176.614655,154.102051 
z"/>
<path fill="#A575DB" opacity="1.000000" stroke="none" 
	d="
M321.587097,409.071320 
	C322.463837,412.041626 322.912842,414.925232 323.732239,417.938171 
	C316.088928,421.004730 306.491882,417.190643 302.016724,409.011444 
	C294.975677,396.142639 290.271057,382.677643 290.897156,367.639771 
	C291.183350,360.765594 290.326691,353.843872 289.934082,346.494812 
	C290.584869,339.352783 291.404053,332.669037 291.956390,325.963287 
	C292.349854,321.186218 292.384338,316.379578 292.848755,311.262390 
	C293.744934,315.718719 295.145508,320.548035 294.845428,325.269287 
	C294.093842,337.094910 298.099854,348.178741 299.277740,359.671478 
	C299.763489,364.410858 299.716034,369.202454 300.018616,373.963470 
	C300.741058,385.330566 303.898499,395.840515 310.661072,405.204865 
	C313.432007,409.041809 317.112488,409.257477 321.587097,409.071320 
z"/>
</svg>