<svg width="170" height="40" viewBox="0 0 170 40" fill="none" xmlns="http://www.w3.org/2000/svg">
<g clip-path="url(#clip0_180_15118)">
<path d="M32.9453 19.8357C33.253 20.0818 33.4068 20.4816 33.3453 20.8814C33.2222 21.4042 33.0992 21.3734 33.0376 21.4349L32.7608 21.6502C32.7608 21.6502 32.6685 21.7117 32.607 21.7425L31.3457 22.4191L29.5922 23.4954C28.7309 23.9875 27.7157 24.4796 26.5775 25.0946L20.3327 28.293L16.4567 30.4458C14.6109 31.5222 13.3189 32.3833 12.6114 32.8753L12.5498 32.9368C12.5498 32.9368 12.6114 32.8138 12.5806 32.8753C12.5806 32.8753 12.6421 32.7216 12.6114 32.7831C12.6114 32.8138 12.6729 32.5678 12.6421 32.6293C12.6421 32.6908 12.6421 32.3218 12.6421 32.414C12.6421 32.5063 12.5191 32.045 12.5806 32.1373C12.6114 32.2295 12.3345 31.799 12.4268 31.8605C12.4883 31.922 12.1192 31.6144 12.2115 31.6759C12.3653 31.7682 11.6885 31.5222 11.8116 31.5222C11.9038 31.5222 11.5655 31.5222 11.5962 31.5222C11.6577 31.5222 11.4116 31.5529 11.4424 31.5222C11.4732 31.5222 11.3501 31.5222 11.3809 31.5222C11.4732 31.4914 11.5962 31.4607 11.7193 31.4607C11.8116 31.4607 11.5039 31.4914 11.5347 31.4607C11.5962 31.4607 11.4424 31.4607 11.4424 31.4607L11.8423 31.2761C12.3038 31.0609 12.6421 31.0301 13.1036 30.8763C13.8726 30.5996 15.0416 30.169 16.4874 29.5539C17.8718 29.0004 19.4099 28.2623 20.948 27.6164C22.6707 26.8784 24.2396 26.3248 25.5008 25.8942C26.7313 25.4944 27.6542 25.2176 28.2387 25.0946C28.3925 25.0639 28.3925 24.8486 29.1 25.0946C29.2539 25.1561 29.5 25.2792 29.6845 25.5559C29.9922 26.048 29.8076 26.4786 29.6845 26.6631C29.4077 27.1551 29.2231 27.1551 28.977 27.3397L28.0234 27.9547L26.4545 28.8466C25.6239 29.3387 24.6395 29.9845 23.5628 30.6611L20.2405 32.7523C18.7639 33.7364 17.7795 34.4745 17.5641 34.7206C17.5641 34.7206 17.6564 34.5976 17.6257 34.6283C17.6257 34.6591 17.7179 34.3823 17.6872 34.4745C17.6872 34.536 17.7179 34.1362 17.7179 34.2285C17.7179 34.3208 17.6564 33.8595 17.6872 33.9517C17.6872 34.044 17.5334 33.6134 17.5949 33.7057C17.6872 33.8287 17.2257 33.3366 17.318 33.3982C17.3796 33.4597 17.0719 33.2751 17.1335 33.3059C17.2257 33.3367 16.8874 33.2444 16.9489 33.2444C16.9796 33.2444 16.8258 33.2444 16.8566 33.2444L17.8102 32.9061C19.1022 32.3833 21.1326 31.8605 23.1014 31.3992L25.6854 30.8763L26.639 30.7533H27.0697C27.2543 30.7533 27.4696 30.6918 27.9618 31.0301C28.5771 31.4914 28.7309 32.3833 28.2695 32.9984C27.808 33.6134 26.9159 33.7672 26.3007 33.3059C26.1776 33.2136 26.0546 33.0906 25.993 32.9676C25.9007 32.8138 26.3929 33.3366 26.3007 33.2751C26.2084 33.2136 26.5775 33.4289 26.516 33.3982C26.3929 33.3366 26.7929 33.4904 26.7313 33.4597C26.6698 33.4597 26.7929 33.4597 26.7313 33.4597C25.4393 33.4597 20.7327 34.413 18.61 35.0896C18.0563 35.2741 17.6564 35.5509 16.8874 35.5202C16.4874 35.4894 15.8722 35.3356 15.6261 34.6283C15.503 34.2593 15.5646 33.8902 15.6876 33.6442C15.7799 33.4289 15.9337 33.2751 16.0568 33.1521C16.6413 32.5986 17.6564 31.9835 19.1945 30.9994L22.4861 28.8466C23.532 28.17 24.5164 27.4934 25.4085 26.9399L26.9467 26.048L28.0849 25.3407C28.0849 25.3407 27.9618 25.4944 27.9926 25.4329C27.9926 25.4329 27.9003 25.5559 27.9311 25.5252C27.9311 25.4944 27.808 25.7712 27.8388 25.679C27.8388 25.6174 27.7465 26.048 27.7773 25.925C27.7773 25.8327 27.808 26.3863 27.7773 26.2633C27.7773 26.1403 27.9618 26.6938 27.9003 26.6016C27.8388 26.5093 28.1464 26.8784 28.0849 26.8168C27.9618 26.7246 28.4848 27.0629 28.3925 27.0014C28.331 27.0014 28.6078 27.0629 28.5771 27.0629C28.5156 27.0629 28.7617 27.0629 28.7309 27.0629C28.6694 27.0629 28.7924 27.0629 28.7309 27.0629C28.3002 27.1551 27.4081 27.4319 26.2391 27.8317C25.0086 28.2623 23.5013 28.8158 21.8401 29.5232C20.3327 30.169 18.7946 30.9071 17.3488 31.4914C15.8414 32.1065 14.6417 32.537 13.7803 32.8138L12.7037 33.1214C12.7037 33.1214 12.5498 33.4289 11.7808 33.4597C11.6885 33.4597 11.5655 33.4597 11.4732 33.4289C11.3194 33.3982 11.1348 33.3366 10.9502 33.1214C10.7656 32.9368 10.6426 32.6293 10.6426 32.3218C10.6426 31.8297 10.8579 31.7067 10.9502 31.6144C11.1655 31.3992 11.3194 31.3069 11.5962 31.1224C12.3037 30.5996 13.6573 29.7385 15.5338 28.6313L19.4406 26.417L25.6239 23.0649C26.7929 22.4498 27.7773 21.927 28.5463 21.4964L30.2998 20.3893L31.7456 19.6205C31.7456 19.6205 31.8379 19.5897 31.8994 19.559L32.1455 19.4974H32.3301C32.3301 19.4974 32.5147 19.3744 32.9453 19.682" fill="#E57048"/>
<path d="M32.7262 15.0519C32.7872 15.2659 32.7567 15.4798 32.6957 15.6937C32.4516 16.2743 32.3296 16.1215 32.2686 16.1521L32.055 16.2743C32.055 16.2743 31.872 16.366 31.7805 16.3965C31.7194 16.3965 31.811 16.3965 31.7805 16.3965L30.2551 17.4356L28.6993 18.4746L24.3368 21.3777L20.4319 23.8224L17.9914 25.3504C16.6186 26.2366 15.8559 26.7561 15.5508 27.0311L15.3373 27.2756L15.2763 27.5201C15.2763 27.5201 15.2763 27.3673 15.2763 27.4284C15.2763 27.459 15.2763 27.2145 15.2763 27.2756C15.2763 27.3673 15.0932 26.8783 15.1542 26.97C15.2152 27.0617 14.8492 26.6644 14.9102 26.7255C15.0322 26.8172 14.6051 26.6033 14.6661 26.6033C14.7271 26.6033 14.5136 26.6033 14.5441 26.6033H14.6356L15.0627 26.4505C15.4898 26.3283 16.1304 26.0532 17.0762 25.6254L19.5777 24.4947C20.9505 23.8835 22.5064 23.1196 24.1232 22.4167C25.7401 21.7444 27.2654 21.2249 28.5467 20.8276C29.9195 20.3692 30.9263 20.0636 31.5974 19.9109L31.7805 19.8497C31.7805 19.8497 31.6279 19.972 31.6889 19.9414C31.6889 19.9414 31.5364 20.1248 31.5669 20.0636C31.5669 20.0331 31.4449 20.247 31.4754 20.1859C31.5059 20.1248 31.3534 20.5832 31.3839 20.4609C31.5059 19.9109 32.0245 19.5747 32.5736 19.6969C33.1228 19.8192 33.4583 20.3387 33.3363 20.8887C33.2143 21.4388 32.6957 21.775 32.1465 21.6527C32.0245 21.6527 31.872 21.561 31.7805 21.4694C31.6584 21.3777 32.0855 21.6222 32.0245 21.5916C31.933 21.561 32.2991 21.6527 32.2381 21.6527C32.1465 21.6527 32.3906 21.6527 32.3906 21.6527H32.3601L32.055 21.7138L29.1874 22.6306C27.9366 23.0584 26.4418 23.5474 24.9164 24.1891C23.3606 24.8614 21.7742 25.5949 20.4014 26.206L17.8998 27.3673C16.9541 27.8257 16.283 28.1313 15.6423 28.3452L14.9712 28.5285C14.7271 28.5897 14.361 28.7425 13.8119 28.3452C13.3543 28.009 13.3238 27.3673 13.3848 27.1534L13.4763 26.8172C13.6289 26.3283 13.934 26.0227 14.2695 25.6865C14.7576 25.1976 15.5813 24.6475 16.9846 23.7613L19.4557 22.2028L23.2996 19.7275L27.6315 16.7938L29.1569 15.7548C30.1636 15.0519 30.4992 14.6241 31.1703 14.3491C31.2618 14.3185 31.3534 14.288 31.4449 14.288H31.9635L32.2686 14.4102C32.3906 14.4713 32.6041 14.3491 32.7872 15.0214" fill="#E57048"/>
<path d="M6.30616 9.80868C6.49129 9.65613 6.76898 9.68664 6.8924 9.86969C6.98496 9.99173 7.01581 10.1443 6.9541 10.2968C6.83069 10.5714 6.67641 10.6934 6.58385 10.846C6.58385 10.846 6.58385 10.724 6.58385 10.785C6.58385 10.785 6.49129 10.6019 6.52214 10.6629C6.55299 10.724 6.18274 10.4799 6.2753 10.5104C6.33701 10.5104 6.39872 10.5409 6.46043 10.5714C6.55299 10.6324 6.21359 10.5104 6.2753 10.5104C6.33701 10.5104 6.18274 10.5104 6.21359 10.5104C6.6147 10.3884 7.94145 9.62562 9.63846 8.83237C11.1503 8.13066 13.0325 7.36792 14.9454 6.69671C17.4755 5.84245 19.8822 5.38481 21.6718 5.0492L24.1093 4.62207L24.7572 4.46952H24.8189C24.8189 4.46952 24.7264 4.46952 24.7572 4.46952C24.7572 4.46952 24.6338 4.56105 24.6646 4.53054C24.6955 4.53054 24.5104 4.74411 24.5412 4.65258C24.5721 4.59156 24.4178 4.98818 24.4487 4.89666C24.4487 4.80513 24.4487 5.3543 24.4487 5.23226C24.4487 5.14073 24.6646 5.65939 24.6029 5.56786C24.5412 5.47633 24.8806 5.81194 24.8189 5.75092C24.7264 5.6899 25.1275 5.87296 25.0658 5.84245C25.004 5.84245 25.1892 5.84245 25.1583 5.84245C24.9732 5.84245 24.7881 5.75092 24.6338 5.59837C24.5721 5.53735 24.8189 5.75092 24.7881 5.72041C24.7264 5.6899 24.8806 5.75092 24.8806 5.75092H24.5104C24.5104 5.75092 23.6156 6.11703 22.3506 6.91028L20.8078 7.85607L16.7967 10.3884L13.4027 12.4935C12.076 13.3478 11.0886 14.019 10.379 14.5376L9.57675 15.1173L9.08307 15.5139C9.08307 15.5139 9.20649 15.2088 9.20649 15.3004C9.20649 15.3614 9.17564 14.9648 9.20649 15.0563C9.20649 15.1173 9.05222 14.7817 9.11393 14.8427C9.17564 14.9343 8.77453 14.5987 8.86709 14.6292C8.95965 14.6597 8.5894 14.5987 8.65111 14.5987C8.77453 14.5987 8.5894 14.5987 8.5894 14.5987L9.6076 14.08L10.9961 13.3173C13.5261 11.9443 17.5681 10.0833 21.4866 8.43575C23.5847 7.55098 25.5594 6.87977 27.1947 6.30009C28.8917 5.72041 30.1259 5.3543 31.0207 5.11022L31.9463 4.86615L32.3783 4.77462H32.656C32.656 4.77462 33.0262 4.7136 33.3039 4.95767C33.3656 5.01869 33.4274 5.11022 33.4891 5.17124C33.705 5.53735 33.5816 5.84245 33.4891 5.96449C33.2422 6.51366 33.088 6.45264 32.9028 6.60518C32.5634 6.87977 31.9772 7.27639 30.6813 7.97811L28.7375 9.01543L21.7643 12.585L16.9201 15.0868C14.5135 16.3682 12.6622 17.436 11.3355 18.2293C10.6875 18.6564 10.1938 19.0225 9.91615 19.2666L9.70016 19.4802C9.70016 19.4802 9.70016 19.3581 9.70016 19.4191C9.70016 19.4191 9.70016 19.2361 9.70016 19.2971C9.70016 19.3886 9.57675 18.9005 9.63846 18.992C9.70016 19.1141 9.29905 18.6564 9.39162 18.7174C9.57675 18.87 9.20649 18.6259 9.2682 18.6564C9.32991 18.6564 9.11393 18.6564 9.14478 18.6564H9.2682L9.85444 18.4123C10.2555 18.2293 10.9652 17.7411 11.9526 17.2225C13.9272 16.1546 16.6733 15.0258 19.4811 13.8359C21.5483 12.9817 23.6156 12.2189 25.436 11.5172C27.8118 10.6629 29.6322 10.0528 30.8047 9.71715C31.1441 9.62562 31.4218 9.5646 31.6995 9.53409C31.8229 9.53409 31.9463 9.50358 32.224 9.59511C32.3783 9.65613 32.5943 9.77817 32.7177 10.0833C32.8411 10.3884 32.7177 10.6934 32.656 10.8155L32.7486 10.6019C32.6251 11.1511 32.3166 11.2121 32.1623 11.3341L31.7304 11.6087C31.2675 11.8528 30.8664 12.1884 29.7248 12.8901L27.3181 14.2936L24.0784 16.0936L20.4993 18.0462C18.3086 19.2361 16.0871 20.5175 14.2666 21.5853C12.4771 22.6532 11.3663 23.4769 10.5949 24.0566L9.6076 24.7583C9.6076 24.7583 9.70016 24.6058 9.66931 24.6668C9.66931 24.6668 9.73102 24.5142 9.70016 24.5447C9.70016 24.5752 9.70016 24.3312 9.70016 24.3922C9.70016 24.5142 9.51504 23.843 9.6076 23.9956C9.66931 24.0871 9.29905 23.66 9.36076 23.721C9.42247 23.782 9.11393 23.5989 9.17564 23.6295C9.2682 23.66 8.9288 23.5684 8.95965 23.5684C9.02136 23.5684 8.83624 23.5684 8.86709 23.5684C8.9288 23.5684 8.83624 23.5684 8.89794 23.5684L10.379 22.7142C12.4154 21.6158 15.4083 20.2124 18.5554 18.809C20.9312 17.7716 23.2762 16.8869 25.3434 16.1546C27.0405 15.575 28.4906 15.1783 29.6014 14.8732L31.2058 14.4766C31.5452 14.3851 31.6378 14.3241 32.0389 14.3546C32.5326 14.3546 32.9337 14.8122 32.9028 15.3004C32.9028 15.7275 32.5634 16.0936 32.1315 16.1546L30.1259 16.6733C29.046 16.9784 27.6267 17.375 26.0222 17.9547C23.9858 18.6564 21.6717 19.5412 19.3885 20.548C16.303 21.9209 13.3102 23.3244 11.3663 24.3617C10.5332 24.7888 10.0396 25.3075 9.14478 25.399C8.95965 25.399 8.74367 25.399 8.46598 25.277C8.03402 25.0634 7.81803 24.4532 7.9106 24.0871C7.97231 23.7515 8.15743 23.5684 8.31171 23.4159C8.68196 23.0498 9.05222 22.8972 9.54589 22.5616C10.3481 21.9819 11.5514 21.1582 13.4336 20.0598C15.254 18.9615 17.5064 17.6801 19.6971 16.4902L23.2762 14.5681L26.4851 12.7376L28.7992 11.3647C29.8791 10.6934 30.2185 10.3578 30.8047 10.0222L31.3601 9.77817L31.4835 9.71715C31.4835 9.71715 31.2984 9.9002 31.3601 9.83918L31.2367 10.0528C31.2367 10.0528 31.175 10.4799 31.175 10.3578C31.175 10.2358 31.3601 10.8765 31.2984 10.7545C31.2367 10.6324 31.6069 11.0596 31.5452 10.9985C31.4835 10.9375 31.7921 11.0901 31.7304 11.0901C31.6378 11.0901 31.9463 11.1206 31.9155 11.1206C31.8229 11.1206 31.9155 11.1206 31.8538 11.1206L31.3601 11.2426C30.311 11.5782 28.4906 12.2189 26.1765 13.1037C24.3561 13.7749 22.3197 14.5681 20.2833 15.3919C17.4447 16.5513 14.7603 17.6496 12.8782 18.6259C11.9525 19.1141 11.3046 19.5412 10.6258 19.8463C10.2864 19.9988 9.947 20.1209 9.63846 20.2124C9.32991 20.2734 8.95965 20.426 8.49683 20.0598C7.97231 19.5412 8.12658 18.931 8.28085 18.6259C8.43513 18.3513 8.68196 18.1378 8.95965 17.9242C9.39162 17.6191 9.947 17.2835 10.6567 16.8869C11.9834 16.0631 13.8655 14.9953 16.303 13.7139L21.1472 11.2121L28.0587 7.55098L30.0025 6.54416C31.2675 5.87296 31.7304 5.53735 31.9463 5.3543L32.1315 5.17124C32.1315 5.17124 32.0698 5.26277 32.1006 5.23226C32.1006 5.23226 32.0389 5.3543 32.0697 5.32379C32.0697 5.26277 32.0698 5.78143 32.0389 5.62888C32.0389 5.53735 32.1623 5.99499 32.1006 5.90347C32.0698 5.81194 32.4092 6.26958 32.3166 6.17805C32.2549 6.11703 32.1932 6.0255 32.1315 5.96449C32.1006 5.87296 32.3474 6.23907 32.2857 6.17805C32.1932 6.08652 32.6251 6.36111 32.5634 6.3306C32.5017 6.3306 32.7177 6.36111 32.6868 6.3306C32.5943 6.3306 32.7486 6.3306 32.6868 6.3306H32.4092L31.5761 6.57467C30.743 6.81875 29.5705 7.18486 27.8735 7.76454C26.2691 8.31371 24.3252 9.04594 22.2888 9.9002C18.4012 11.5172 14.3901 13.3783 11.9526 14.6902L10.5641 15.4529L9.63846 15.9106C9.36076 16.0326 9.11393 16.1851 8.62025 16.0936C8.21914 15.9716 7.84889 15.6055 7.81803 15.2088C7.81803 14.8122 8.00316 14.5376 8.18829 14.3851C8.34256 14.202 8.5894 14.0495 8.83624 13.8664L9.70016 13.2868L12.8165 11.2731L16.1488 9.13747L20.129 6.57467L21.6718 5.59837C22.9368 4.80513 23.6464 4.19494 24.6029 4.16443H25.1275C25.3126 4.16443 25.5594 4.16443 25.868 4.46952C26.0222 4.59156 26.084 4.77462 26.1148 4.98818C26.1148 5.23226 25.9605 5.53735 25.8063 5.65939C25.3434 5.995 25.4669 5.78143 25.4669 5.81194L24.4795 5.93398L22.0729 6.36111C20.2524 6.69671 17.9383 7.15435 15.5317 7.9476C13.6496 8.5883 11.8291 9.32052 10.379 10.0222L7.81803 11.3036L6.92325 11.7003C6.64556 11.7918 6.33701 11.9748 5.87419 11.7003C5.81248 11.6698 5.78163 11.6087 5.71992 11.5782C5.19539 10.968 5.56565 10.4189 5.96676 10.1138L6.39872 9.80868H6.30616Z" fill="#E57048"/>
<path d="M30.3416 33.2605C31.212 33.907 31.392 35.1693 30.7618 36.0621C30.6117 36.2776 30.4317 36.4315 30.2216 36.5855L29.8314 36.801C29.5313 36.9241 29.2312 36.9857 28.901 36.9549H28.691H28.4809H29.1411C29.1411 36.9549 29.2312 36.9241 29.2012 36.9549C29.1712 36.9549 29.4413 36.8625 29.3812 36.8933C28.3008 37.2628 27.1604 36.6778 26.8002 35.5695C26.4401 34.4612 27.0103 33.2913 28.0907 32.9218C28.5109 32.7679 28.9911 32.7679 29.4113 32.9218L28.901 32.8295H28.9311H29.2012C29.5013 32.8295 29.8014 32.9526 30.0715 33.1066L30.3716 33.3221L30.3416 33.2605Z" fill="#E57048"/>
<path d="M12.4147 36.1969C12.4147 36.1969 12.4762 35.9517 12.5378 35.8292C12.8761 35.2468 12.9684 35.4307 13.0607 35.3694L13.276 35.2775C13.276 35.2775 13.4914 35.2162 13.6144 35.2162H14.1989L14.8449 35.1242L16.3522 34.7871L17.6443 34.4806L18.5979 34.2967C19.9822 34.0209 21.4587 33.7451 22.843 33.5305L25.181 33.316L26.4114 33.2547L27.4573 33.1627L28.5648 33.1014H28.7186C28.7186 33.1014 28.4417 33.1934 28.534 33.1627C28.6263 33.1321 28.2879 33.2547 28.411 33.224C28.4725 33.224 28.0726 33.4386 28.1649 33.3773C28.2264 33.3466 27.8573 33.6225 27.9495 33.5612C27.9803 33.5305 27.7342 33.8064 27.7957 33.7144C27.8573 33.6531 27.4881 34.1741 27.5804 34.0209C28.0726 33.1014 29.2415 32.795 30.1644 33.2853C31.0873 33.7757 31.3949 34.9404 30.9027 35.8598C30.4105 36.7793 29.2415 37.0857 28.3187 36.5954C27.9495 36.3808 27.6419 36.0437 27.4881 35.6453C27.4266 35.4614 27.765 36.105 27.7034 36.013C27.5804 35.8598 28.0726 36.4115 27.9803 36.3502C27.8573 36.2276 28.3802 36.626 28.2879 36.5647C28.1649 36.5034 28.5955 36.718 28.534 36.6873C28.4725 36.6873 28.6878 36.7486 28.6571 36.718C28.411 36.626 28.7186 36.718 28.6878 36.718H28.4725H27.5804H26.5037L25.3655 36.7486L23.2429 36.8712C21.8587 36.9631 20.4128 37.1164 19.0285 37.2696L18.1672 37.3616L16.7214 37.4842C15.9523 37.5148 15.3371 37.4842 14.8449 37.4842H14.1989C13.8605 37.4842 13.5837 37.4842 13.3068 37.3922C13.1838 37.3922 13.0915 37.3309 12.9992 37.2696L12.6916 37.0244C12.6916 37.0244 12.2917 36.9631 12.3839 36.1663" fill="#E57048"/>
<path d="M13.96 36.0268C14.1593 36.2759 14.1593 36.608 13.8935 36.8017C13.8935 36.8017 13.9932 36.691 13.9932 36.7186C13.9932 36.7463 14.1261 36.3312 14.0929 36.4973C14.0264 36.8293 13.6277 37.0507 13.2289 36.9954C12.8302 36.94 12.5643 36.608 12.6308 36.2759C12.6972 35.9438 13.096 35.7224 13.4948 35.7778C13.7938 35.8331 14.0597 36.0268 14.0929 36.3036C14.0929 36.4419 13.9932 36.0822 14.0264 36.1098C14.0264 36.1375 13.96 36.0268 13.96 36.0545" fill="#E57048"/>
<path d="M30.6448 34.9052C30.6448 36.078 29.7189 37.0039 28.546 37.0039C27.3732 37.0039 26.4473 36.078 26.4473 34.9052C26.4473 33.7323 27.3732 32.8064 28.546 32.8064C29.7189 32.8064 30.6448 33.7323 30.6448 34.9052Z" fill="#E57048"/>
<path d="M13.3586 33.5497C14.0376 33.5497 14.5932 34.1047 14.5932 34.783C14.5932 35.4613 14.0376 36.0163 13.3586 36.0163C12.6796 36.0163 12.124 35.4613 12.124 34.783C12.124 34.1972 12.5253 33.7038 13.0808 33.5805C13.2043 33.5805 12.8339 33.6422 12.8956 33.6422C13.0191 33.5805 12.587 33.8272 12.6487 33.7655C12.7104 33.7347 12.5253 33.8888 12.5561 33.858C12.9265 33.5189 13.4512 33.4572 13.9141 33.673C13.9141 33.673 13.729 33.5805 13.7907 33.6114C13.8216 33.6114 13.6055 33.5497 13.6672 33.5805C13.6672 33.5805 13.5129 33.5805 13.5746 33.5805C13.6055 33.5805 13.266 33.5805 13.3895 33.5805" fill="#E57048"/>
<path d="M3.29716 5.93441C3.69744 5.81174 4.15931 5.96508 4.37485 6.33312L4.46723 6.48647L4.62118 6.85451L5.11385 7.89728L5.48334 8.63335L5.69888 9.21608L6.25313 10.5042L6.74579 11.6697L7.23845 12.8044L7.85428 14.4913L8.40852 16.0554L9.2091 18.2023L10.2868 20.7786L10.995 22.4961L11.6724 24.3056L12.1343 25.9004L12.4422 26.9125L12.9964 28.6607L13.3659 29.8261L13.7046 30.7462L14.1049 31.7277L14.5668 32.8011L14.6592 33.0158L14.5668 32.8624L14.6592 33.0465C14.6592 33.0465 14.7207 33.1691 14.7515 33.2305L14.8439 33.4145L14.9363 33.6292L14.9979 33.7825L15.0902 33.9972L14.7515 33.5065C14.7823 33.5372 14.536 33.3225 14.5976 33.3838C14.6592 33.4452 14.0433 33.1078 14.2281 33.1691C14.3512 33.2305 14.4744 33.2918 14.5668 33.3838C14.6592 33.4452 13.9818 33.0771 14.1665 33.1691C14.2589 33.1998 13.5815 33.0158 13.7354 33.0465C13.8278 33.0465 13.2428 33.0465 13.3967 33.0465C13.4583 33.0465 13.058 33.0771 13.1504 33.0465C13.2428 33.0465 12.6577 33.1998 12.8117 33.1385C13.797 32.7704 14.8747 33.2612 15.2134 34.2426C15.5829 35.224 15.0902 36.2975 14.1049 36.6348C13.1196 37.0029 12.0419 36.5121 11.7032 35.5307C11.4877 34.948 11.58 34.2733 11.9495 33.7825C12.0111 33.6905 11.7956 34.0586 11.8264 33.9972C11.8879 33.9052 11.7032 34.3039 11.734 34.2426C11.7648 34.1506 11.6416 34.5186 11.6724 34.4573C11.7032 34.3039 11.6108 34.8253 11.6416 34.764C11.6416 34.6106 11.6724 34.4879 11.7032 34.3653C11.734 34.2426 11.6416 34.672 11.6416 34.6106C11.6416 34.5493 11.6416 34.7333 11.6416 34.7333L11.7032 35.316V35.224L11.6416 35.132L11.58 34.8866L11.5184 34.672L11.4569 34.4879L11.3645 34.1199L10.9334 33.0158L10.5331 31.881L10.2252 30.8689L9.8865 29.6728L9.36305 27.8633L9.08593 26.7898L8.65485 25.3484L8.10061 23.5695L7.51557 21.852L6.65341 19.1531L5.94521 16.8835L5.48334 15.2887L4.99068 13.6939L4.59039 12.5284L4.15931 11.3016L3.69744 9.95215L3.5127 9.58411L3.1432 8.7867C2.92766 8.29598 2.74291 7.89728 2.61975 7.49857L2.55816 7.34522L2.49658 6.97719V6.67049C2.55816 6.51714 2.55816 6.1491 3.20478 5.96508" fill="#E57048"/>
<path d="M3.84254 6.56191C4.01975 6.73912 4.01975 7.03447 3.84254 7.24122C3.66533 7.41843 3.36997 7.41843 3.16322 7.24122C2.95648 7.06401 2.92694 6.76865 3.10415 6.56191C3.28137 6.35516 3.57672 6.32562 3.75393 6.50284L3.87207 6.62098L3.84254 6.56191Z" fill="#E57048"/>
<path d="M15.3375 34.9052C15.3375 35.9374 14.5178 36.757 13.4856 36.757C12.4535 36.757 11.6338 35.9374 11.6338 34.9052C11.6338 33.873 12.4535 33.0533 13.4856 33.0533C14.5178 33.0533 15.3375 33.873 15.3375 34.9052Z" fill="#E57048"/>
<path d="M35.1886 1.99341C35.3423 1.40655 35.9263 1.06679 36.5103 1.25212C37.0022 1.37567 37.3403 1.83898 37.3095 2.36406L37.2481 2.76559L37.0636 3.35245L36.8485 4.30996L36.7255 4.95859L36.4489 6.28674L36.203 7.39868L35.9878 8.44885L35.2808 10.7963L34.6968 13.1437L33.8976 16.4178L33.5594 18.0239L33.0984 20.0007L32.9447 20.8346L32.668 22.3481L32.5451 23.1512L32.2992 24.6029L32.207 25.0044L31.9918 25.931L31.7766 26.9194L31.4692 28.2785L31.2848 29.1124L31.1311 29.9773L30.9467 31.3981L30.793 32.3865L30.6085 33.3749L30.4856 34.3324V33.6529L30.5163 33.9926C30.5163 33.9926 30.4856 33.8382 30.5163 33.9C30.5778 34.1779 30.5778 34.4868 30.5163 34.7957C30.5163 34.8884 30.5471 34.5486 30.5163 34.5795C30.5163 34.5486 30.5163 34.6104 30.5163 34.5795C30.5163 34.6721 30.5163 34.7648 30.4856 34.8575V34.9501C30.4241 35.1663 30.3626 35.3517 30.2704 35.537L30.2089 35.6605L30.3319 35.3208L30.2704 35.537V35.6605L30.3012 34.9192V35.0119C30.3012 35.259 30.3012 35.537 30.2397 35.7841V35.9385L30.1167 36.1238L29.963 36.4327L30.0245 34.5177C30.0245 34.5177 29.963 34.3942 29.9938 34.425C30.2397 34.9192 30.3012 35.4752 30.1782 36.0003L30.086 36.3092L30.2089 35.8459L30.086 36.2474C29.6557 37.4211 28.3646 38.0388 27.1966 37.6064C26.0285 37.174 25.4137 35.8767 25.8441 34.703C26.2437 33.5911 27.4425 32.9733 28.5798 33.2822C28.795 33.344 27.965 33.1895 28.088 33.1895C28.2109 33.1895 27.8113 33.1895 27.8728 33.1895L27.1658 33.344C27.1658 33.344 26.6125 33.6837 26.7355 33.5911C27.1658 33.2822 27.7191 33.1278 28.2724 33.1895C28.4569 33.1895 27.4425 33.2513 27.6577 33.1895L26.1207 34.3942C26.1207 34.3942 26.0593 34.5177 26.09 34.4868C26.1515 34.2706 26.2744 34.0544 26.4281 33.8382L26.1515 34.5486L26.1207 34.8266V34.7648L26.1515 34.4559V34.7957V34.6413C26.1515 34.425 26.1515 34.2397 26.2129 34.0235L26.2744 33.7764C26.2744 33.7764 26.3359 33.5911 26.3666 33.4984L26.5511 33.1587C26.7048 32.9116 26.8892 32.6954 27.1351 32.5409C27.0736 32.6027 27.1658 32.51 27.1351 32.5409C27.1966 32.4791 26.8585 32.8498 26.9199 32.7571L26.6433 33.3749L26.8277 32.5718L26.9814 31.6143L27.1351 30.7495L27.3503 29.3286L27.504 28.2785L27.6884 27.3519L27.9958 25.9619L28.2417 24.9118L28.4569 24.0469L28.5491 23.6763L28.8565 22.3481L29.0409 21.4833L29.4097 19.908L29.6557 19.0123L30.2089 17.0355L30.7315 15.3676L31.6537 12.1862L32.5143 9.71523L33.375 7.52223L33.8361 6.47207L34.1435 5.51456L34.5431 4.2173L34.7582 3.53778L35.0349 2.54938L35.2193 1.99341V1.90075L35.1886 1.99341Z" fill="#E57048"/>
<path d="M30.3979 35.5224C30.3979 36.7536 29.3519 37.7446 28.0522 37.7446C26.7526 37.7446 25.7065 36.7536 25.7065 35.5224C25.7065 34.2912 26.7526 33.3002 28.0522 33.3002C29.3519 33.3002 30.3979 34.2912 30.3979 35.5224Z" fill="#E57048"/>
<path d="M2.23691 5.63184C2.32914 5.48118 2.45212 5.33052 2.60584 5.24012C3.18997 4.87854 3.03625 5.08946 3.067 5.08946L3.95857 4.93881L5.06535 4.63749L6.23362 4.39643L7.6171 4.12524L8.29347 4.00472L9.1543 3.85406L10.8452 3.55274L12.7513 3.25142L13.5507 3.10076L14.6575 2.9501L18.6234 2.37759L19.5457 2.25707L20.6218 2.07627L24.4955 1.47364L26.2172 1.23258L29.2301 0.870998L31.1977 0.660075H32.7656H32.5197L32.9501 0.599811L33.6572 0.479283L34.6103 0.26836L35.1944 0.117701L35.4404 0.0574367H35.6556H35.4096H35.5326C35.5326 0.0574367 35.84 -0.032959 35.9938 -0.032959H36.2397L36.6394 0.0875686L36.1167 -0.032959C36.1167 -0.032959 36.3627 -0.032959 36.6086 0.0574367C37.3465 0.328624 37.7462 1.14219 37.4695 1.89548C37.3157 2.2872 37.0083 2.58852 36.6086 2.73918H36.5471L37.0083 2.49812L36.8238 2.64878L36.6701 2.73918C36.6701 2.73918 36.3627 2.88984 36.1782 2.91997H36.1167L36.3627 2.8597L36.209 2.91997L36.0245 2.98023L35.3481 3.16102L34.1799 3.40208H33.1961H32.5197H32.7349L31.4129 3.49247L29.4453 3.64313L26.5246 3.97458L24.8337 4.15538L20.9907 4.66762L19.8839 4.81828L18.9924 4.96894L14.9956 5.54144L13.9504 5.6921L13.0895 5.81263L11.2449 6.08382L9.52323 6.355L8.60091 6.47553L7.95529 6.56593L6.57181 6.77685L5.46503 6.92751L4.20452 7.04804C3.68188 7.13843 3.31295 7.16857 2.88253 7.04804L2.39063 6.77685L2.17542 6.50566C2.17542 6.50566 1.8065 6.23448 2.14468 5.57158" fill="#E57048"/>
<path d="M3.2636 5.45643C3.32382 5.08532 3.65499 4.84917 3.98616 4.91664C4.19691 4.95038 4.34744 5.11906 4.43776 5.35522C4.52808 5.65885 4.40765 5.99622 4.28723 6.13117L4.04637 6.33359L3.86573 6.46853C3.86573 6.46853 4.10659 6.06369 4.07648 6.1649C4.07648 6.23238 4.07648 6.02995 4.07648 6.06369V5.76006C4.10659 5.99622 4.07648 6.13117 4.07648 6.1649C4.07648 6.1649 4.07648 5.7938 4.07648 5.89501C4.1668 6.46853 3.86573 7.00832 3.35392 7.10953C2.84211 7.21074 2.36041 6.87337 2.27009 6.29985C2.17977 5.86127 2.36041 5.42269 2.72169 5.18653C2.99264 5.01785 3.20339 5.01785 3.29371 5.05159C3.38403 5.05159 3.2335 5.05159 3.32382 5.05159H3.08296H3.47435H3.65499C3.65499 5.05159 3.50446 5.05159 3.56467 5.05159C3.56467 5.05159 3.38403 5.22027 3.44424 5.1528C3.50446 5.08532 3.2335 5.65885 3.2636 5.49017" fill="#E57048"/>
<path d="M66.4328 20.6358C65.8786 19.397 65.1288 18.4191 64.1835 17.7345C63.2381 17.0499 62.0971 16.7239 60.7931 16.7239C59.4891 16.7239 58.3155 17.0499 57.1093 17.7345C55.9031 18.4191 54.8925 19.3644 54.1101 20.538H53.9145V7.9871C53.9145 7.33511 53.7515 6.84611 53.4255 6.55271C53.0995 6.22671 52.5779 6.09631 51.8281 6.09631C51.4695 6.09631 51.0131 6.09631 50.4589 6.19411C49.9047 6.25931 49.0897 6.38971 47.9487 6.55271C47.9487 7.49811 48.1443 7.9871 48.5681 8.0849L50.3937 8.4761V33.8062C51.3717 34.2952 52.4149 34.6864 53.5559 34.9146C54.6969 35.1754 55.7727 35.2732 56.8159 35.2732C59.0001 35.2732 60.8909 34.8494 62.4231 34.0018C63.9552 33.1542 65.1614 31.948 65.9764 30.4158C66.7914 28.8836 67.2152 27.0906 67.2152 25.0694C67.2152 23.3742 66.9544 21.9072 66.4002 20.6358H66.4328ZM61.9015 31.6872C60.9887 32.926 59.5869 33.578 57.6635 33.578C56.9463 33.578 56.2943 33.4802 55.6423 33.252C55.1207 33.089 54.5665 32.7956 54.0123 32.437V22.2006C54.4035 21.7116 54.7621 21.2226 55.1533 20.7988C55.6749 20.2446 56.2617 19.8208 56.9137 19.5274C57.5657 19.234 58.2503 19.071 59.0327 19.071C60.4671 19.071 61.5103 19.6252 62.1949 20.701C62.8795 21.8094 63.2055 23.5046 63.2055 25.7866C63.2055 28.4598 62.7491 30.4158 61.8689 31.6546L61.9015 31.6872Z" fill="#171717"/>
<path d="M87.7208 32.4044C87.46 32.6 87.1666 32.7956 86.8732 32.926C86.5472 33.0564 86.2538 33.1216 85.9604 33.1216C85.6344 33.1216 85.341 32.9912 85.1454 32.763C84.9498 32.5348 84.852 32.1762 84.852 31.7524V19.5926C84.852 18.8102 84.6564 18.256 84.2978 17.8975C83.9392 17.5389 83.3524 17.3759 82.5374 17.3759C82.2114 17.3759 81.755 17.4085 81.2008 17.5063C80.6466 17.5715 79.8316 17.7019 78.7884 17.8323C78.7884 18.3212 78.821 18.7124 78.9188 18.9406C79.0166 19.1688 79.147 19.3318 79.3426 19.3644L81.2334 19.723V30.6766C80.9726 31.0026 80.7118 31.296 80.3858 31.622C79.9294 32.0132 79.3752 32.3392 78.7884 32.5674C78.2016 32.7956 77.5496 32.926 76.865 32.926C75.8544 32.926 75.072 32.6 74.5504 31.9806C74.0288 31.3612 73.7354 30.3832 73.7354 29.0466V19.6578C73.7354 18.8754 73.5398 18.3213 73.1812 17.9627C72.7901 17.6041 72.2359 17.4411 71.4535 17.4411C71.1275 17.4411 70.6711 17.4737 70.1169 17.5715C69.5627 17.6367 68.7477 17.7671 67.6719 17.8975C67.6719 18.3864 67.7371 18.7776 67.8349 19.0058C67.9327 19.234 68.0957 19.397 68.2587 19.4296L70.0843 19.7882V29.34C70.0843 31.4264 70.4755 32.9586 71.2905 33.9366C72.0729 34.9146 73.2138 35.4036 74.7134 35.4036C77.191 35.4036 79.3752 34.3604 81.2986 32.2414H81.4942C81.4942 33.252 81.755 34.0344 82.244 34.5886C82.733 35.1428 83.4502 35.4036 84.2978 35.4036C84.9498 35.4036 85.6344 35.2406 86.319 34.9472C87.0036 34.6538 87.623 34.23 88.0794 33.7084L87.7534 32.5348L87.7208 32.4044Z" fill="#171717"/>
<path d="M95.5447 35.2733C93.9148 35.2733 92.4478 34.9147 91.209 34.2301C89.9702 33.5129 89.0248 32.5349 88.3402 31.2309C87.6556 29.9269 87.3296 28.4273 87.3296 26.6669C87.3296 24.711 87.7208 22.9832 88.5032 21.5162C89.2856 20.0166 90.3614 18.8756 91.7632 18.028C93.165 17.1804 94.7297 16.7566 96.4901 16.7566C97.6963 16.7566 98.8047 16.9522 99.7827 17.3434C100.793 17.7346 101.576 18.2562 102.163 18.9408C102.749 19.5928 103.043 20.3426 103.043 21.1576C103.043 21.7118 102.88 22.1356 102.521 22.4616C102.163 22.7876 101.739 22.9506 101.152 22.9506C100.891 22.9506 100.63 22.918 100.402 22.8202C100.174 22.755 99.9457 22.6572 99.6849 22.5594C99.6849 21.1576 99.3915 20.0818 98.7721 19.3646C98.1527 18.6474 97.2725 18.2562 96.0989 18.2562C94.5341 18.2562 93.328 18.9082 92.513 20.1796C91.698 21.451 91.2742 23.2766 91.2742 25.6563C91.2742 28.1665 91.7632 30.0573 92.7086 31.3287C93.654 32.6001 95.0883 33.2521 96.9791 33.2521C97.9897 33.2521 99.0003 33.0565 99.9457 32.6327C100.891 32.2089 101.804 31.6221 102.652 30.8397L103.206 31.8829C102.652 32.5675 101.967 33.1543 101.152 33.6759C100.337 34.1975 99.4241 34.5887 98.4787 34.8821C97.5333 35.1755 96.5227 35.3059 95.5447 35.3059V35.2733Z" fill="#171717"/>
<path d="M109.106 8.4435C109.106 6.87871 108.454 6.09631 107.183 6.09631C106.531 6.09631 105.879 6.12891 105.194 6.22671C104.51 6.32451 103.727 6.42231 102.814 6.55271C102.814 7.49811 103.01 7.9871 103.434 8.0849L105.39 8.4761V32.6L103.434 33.252C103.238 33.3172 103.075 33.4802 102.977 33.7084C102.88 33.9366 102.814 34.2952 102.814 34.8168H110.475C110.769 34.5886 110.964 34.3604 111.062 34.1322C111.16 33.904 111.225 33.578 111.225 33.1868L109.106 32.6978V8.4435Z" fill="#171717"/>
<path d="M118.79 31.133C117.649 30.2202 116.54 29.177 115.464 27.9708C114.519 26.9276 113.671 25.8192 112.856 24.6782L118.268 19.8534L120.452 19.1036C120.713 19.0384 120.876 18.8754 120.974 18.6472C121.039 18.419 121.104 18.0278 121.104 17.441H113.834C113.476 17.8974 113.28 18.4842 113.28 19.1362L115.334 19.723L109.271 25.0694C110.9 27.6774 112.367 29.7312 113.639 31.1982C114.91 32.6652 116.019 33.7084 116.997 34.3278C117.975 34.9472 118.855 35.2406 119.605 35.2406C120.322 35.2406 120.909 35.045 121.365 34.6864C121.821 34.3278 122.082 33.8388 122.082 33.2846C121.072 32.7304 119.996 32.0132 118.855 31.1004L118.79 31.133Z" fill="#171717"/>
<path d="M155.952 6.38971C155.757 6.19411 155.431 6.09631 155.04 6.09631C154.811 6.09631 154.551 6.16151 154.29 6.29191C154.029 6.42231 153.833 6.61791 153.638 6.87871C153.442 7.13951 153.377 7.43291 153.377 7.75891C153.377 8.0849 153.475 8.3783 153.703 8.5739C153.931 8.7695 154.225 8.8999 154.616 8.8999C154.844 8.8999 155.105 8.8347 155.366 8.7043C155.626 8.5739 155.855 8.3783 156.018 8.1175C156.181 7.8567 156.278 7.56331 156.278 7.23731C156.278 6.91131 156.181 6.58531 155.952 6.38971Z" fill="#E57048"/>
<path d="M154.94 20.701C154.777 20.7662 154.582 20.7988 154.419 20.7988C154.093 20.7988 153.897 20.6032 153.897 20.1794C153.897 19.9186 153.962 19.5274 154.06 19.0384C154.158 18.5168 154.288 17.9626 154.451 17.3432C154.582 16.7238 154.745 16.0718 154.875 15.4524C155.005 14.833 155.136 14.2462 155.266 13.692C155.364 13.1704 155.429 12.7466 155.429 12.4206C155.429 11.9642 155.299 11.573 155.071 11.3122C154.842 11.0514 154.484 10.921 153.962 10.921C153.571 10.921 153.115 11.0514 152.593 11.2796C152.071 11.5078 151.582 11.8664 151.126 12.2902L151.452 12.9422C151.745 12.8118 152.039 12.714 152.3 12.6814C152.593 12.6162 152.854 12.6162 153.082 12.6162C153.18 12.6162 153.245 12.6162 153.31 12.6162C153.278 12.9096 153.212 13.203 153.147 13.5616C153.017 14.181 152.886 14.833 152.723 15.5176C152.56 16.2022 152.397 16.8868 152.234 17.5714C152.071 18.256 151.941 18.8754 151.843 19.4296C151.745 19.9838 151.713 20.4402 151.713 20.7662C151.713 21.3204 151.843 21.7442 152.071 22.0376C152.3 22.331 152.658 22.4614 153.082 22.4614C153.343 22.4614 153.669 22.3962 153.962 22.2984C154.288 22.2006 154.614 22.0376 154.94 21.8094C155.266 21.6138 155.592 21.353 155.853 21.0922L155.462 20.4402C155.266 20.5706 155.071 20.6684 154.908 20.7336L154.94 20.701Z" fill="#E57048"/>
<path d="M159.964 22.4614C158.823 22.4614 157.943 22.1028 157.323 21.3856C156.704 20.6684 156.378 19.6578 156.378 18.3864C156.378 17.4084 156.541 16.463 156.9 15.5828C157.226 14.7026 157.715 13.8876 158.269 13.203C158.856 12.5184 159.508 11.9642 160.29 11.573C161.04 11.1818 161.855 10.9862 162.702 10.9862C163.843 10.9862 164.756 11.3448 165.408 12.0946C166.06 12.8444 166.419 13.855 166.419 15.159C166.419 16.137 166.256 17.0498 165.897 17.93C165.538 18.8102 165.082 19.5926 164.463 20.2772C163.843 20.9618 163.159 21.516 162.409 21.9072C161.627 22.2984 160.844 22.494 159.964 22.494V22.4614ZM160.714 21.4834C161.333 21.4834 161.887 21.2226 162.376 20.6684C162.865 20.1142 163.289 19.397 163.582 18.4842C163.876 17.5714 164.039 16.5608 164.039 15.485C164.039 14.4092 163.843 13.4964 163.485 12.877C163.126 12.2576 162.637 11.9316 162.018 11.9316C161.561 11.9316 161.138 12.0946 160.746 12.4206C160.355 12.7466 159.997 13.1704 159.703 13.7572C159.41 14.3114 159.149 14.9634 158.986 15.7132C158.823 16.463 158.725 17.2128 158.725 18.0278C158.725 19.1362 158.888 20.0164 159.247 20.6032C159.605 21.19 160.062 21.516 160.681 21.516L160.714 21.4834Z" fill="#E57048"/>
<path d="M149.3 31.1643C148.713 31.6859 148.061 32.0771 147.409 32.3053C146.757 32.5335 146.137 32.6639 145.551 32.6639C144.801 32.6639 144.279 32.4357 143.953 31.9467C143.66 31.4903 143.497 30.7405 143.497 29.7299V19.4284L148.191 19.5262C148.517 19.461 148.745 19.2654 148.908 18.9394C149.071 18.6134 149.169 18.2222 149.169 17.7658C149.169 17.6354 149.169 17.505 149.104 17.3746C149.071 17.2442 149.006 17.1138 148.974 16.9834L143.497 17.2116V12.5172C143.04 12.5172 142.584 12.615 142.128 12.778C141.671 12.9084 141.215 13.0714 140.824 13.267C140.433 13.4626 140.074 13.6582 139.781 13.8864V17.3746L137.759 17.4724C137.564 17.6028 137.433 17.831 137.336 18.1896C137.238 18.5482 137.173 18.9068 137.173 19.298L139.781 19.3632V22.4928C139.781 25.2311 138.868 27.8391 136.944 29.8277C135.673 31.1317 134.076 32.1097 132.413 32.7617C130.848 33.3811 129.153 33.2507 127.784 32.2401C126.904 31.6207 126.252 30.7405 125.795 29.5669C125.339 28.4259 125.111 27.0567 125.111 25.4267H136.064C136.358 25.4267 136.586 25.3289 136.781 25.1659C136.977 24.9703 137.042 24.6444 137.042 24.1228C137.042 22.6558 136.749 21.3844 136.162 20.276C135.575 19.1676 134.76 18.2874 133.75 17.668C132.706 17.0486 131.5 16.7226 130.098 16.7226C128.468 16.7226 127.001 17.1464 125.632 18.0266C124.263 18.9068 123.187 20.0804 122.372 21.6126C121.557 23.1448 121.166 24.8399 121.166 26.7307C121.166 28.3933 121.492 29.8929 122.177 31.1643C122.861 32.4683 123.807 33.4463 125.013 34.1635C126.219 34.8807 127.653 35.2393 129.283 35.2393C133.815 35.2393 137.401 32.9247 139.846 30.6753C139.911 32.1097 140.172 33.2507 140.791 34.0005C141.443 34.8481 142.421 35.2393 143.758 35.2393C144.67 35.2393 145.551 35.0763 146.366 34.7503C147.181 34.4243 147.93 34.0331 148.55 33.5441C149.169 33.0551 149.658 32.6313 149.952 32.2401L149.332 31.1317L149.3 31.1643ZM126.349 20.1456C127.197 18.8742 128.305 18.2222 129.642 18.2222C130.457 18.2222 131.142 18.483 131.761 18.972C132.348 19.461 132.837 20.1782 133.163 21.0584C133.456 21.8408 133.554 22.7862 133.554 23.8294L125.143 24.025C125.306 22.4276 125.697 21.1236 126.349 20.1456Z" fill="#171717"/>
<path d="M168.177 9.16089C169.155 9.16089 169.97 9.97588 169.97 10.9539C169.97 11.9319 169.155 12.7469 168.177 12.7469C167.199 12.7469 166.384 11.9319 166.384 10.9539C166.384 9.97588 167.199 9.16089 168.177 9.16089ZM168.177 12.4861C169.024 12.4861 169.709 11.8015 169.709 10.9539C169.709 10.1063 169.024 9.42169 168.177 9.42169C167.329 9.42169 166.645 10.1063 166.645 10.9539C166.645 11.8015 167.329 12.4861 168.177 12.4861ZM169.22 11.8993C169.22 11.8993 169.22 11.9645 169.155 11.9645H168.927C168.927 11.9645 168.764 11.9645 168.731 11.8667C168.698 11.8015 168.601 11.5733 168.535 11.4103C168.405 11.1169 168.275 11.0191 168.046 11.0191H167.949C167.949 11.0191 167.949 11.0191 167.949 11.0517V11.4429C167.949 11.6385 167.949 11.7037 167.981 11.7363C167.981 11.7689 168.046 11.8015 168.079 11.8341C168.112 11.8341 168.144 11.8667 168.144 11.8993C168.144 11.9319 168.112 11.9645 168.046 11.9645H167.492C167.492 11.9645 167.427 11.9645 167.427 11.8993C167.427 11.8667 167.46 11.8341 167.492 11.8341C167.525 11.8341 167.557 11.8015 167.59 11.7363C167.59 11.7037 167.623 11.6385 167.623 11.4429V10.3671C167.623 10.1715 167.623 10.1063 167.525 10.0737C167.492 10.0737 167.427 10.0411 167.427 9.97588C167.427 9.97588 167.427 9.91069 167.492 9.91069H168.209C168.405 9.91069 168.666 9.91069 168.796 10.0411C168.927 10.1389 168.959 10.2693 168.959 10.3997C168.959 10.6279 168.796 10.8235 168.535 10.8561C168.698 10.8887 168.796 10.9865 168.959 11.3451C169.09 11.6385 169.122 11.7037 169.187 11.7363C169.187 11.7363 169.253 11.7363 169.253 11.8015L169.22 11.8993ZM168.568 10.4649C168.568 10.4649 168.568 10.3019 168.47 10.2367C168.372 10.1715 168.209 10.1389 168.112 10.1389H167.981C167.981 10.1389 167.916 10.1389 167.916 10.1715V10.7583C167.916 10.7583 167.916 10.7909 167.949 10.7909H168.112C168.34 10.7909 168.568 10.6931 168.568 10.4323V10.4649Z" fill="#E57048"/>
</g>
<defs>
<clipPath id="clip0_180_15118">
<rect width="169.943" height="40" fill="white" transform="translate(0.0283203)"/>
</clipPath>
</defs>
</svg>
